<svg width="260" height="260" viewBox="0 0 260 260" fill="none" xmlns="http://www.w3.org/2000/svg">
<g clip-path="url(#clip0_85_2582)">
<path d="M181.023 147.81L227.487 101.345C230.805 103.543 234.767 104.839 239.032 104.839C250.594 104.839 260 95.4326 260 83.871C260 72.3094 250.594 62.9032 239.032 62.9032C227.471 62.9032 218.065 72.3094 218.065 83.871C218.065 88.1358 219.36 92.0987 221.558 95.4158L175.093 141.88C171.776 139.683 167.813 138.387 163.548 138.387C160.646 138.387 157.879 138.983 155.363 140.056L123.454 97.5126C124.909 94.6568 125.806 91.4781 125.806 88.0645C125.806 76.5029 116.4 67.0968 104.839 67.0968C93.2771 67.0968 83.871 76.5029 83.871 88.0645C83.871 92.2958 85.15 96.221 87.3139 99.5213L29.9461 153.065C27.2119 151.76 24.1926 150.968 20.9677 150.968C9.40613 150.968 0 160.374 0 171.935C0 183.497 9.40613 192.903 20.9677 192.903C32.5294 192.903 41.9355 183.497 41.9355 171.935C41.9355 166.673 39.9184 161.917 36.7061 158.231L93.21 105.493C96.5439 107.724 100.54 109.032 104.839 109.032C109.854 109.032 114.404 107.187 118.019 104.239L148.473 144.845C144.841 148.615 142.581 153.719 142.581 159.355C142.581 170.916 151.987 180.323 163.548 180.323C175.11 180.323 184.516 170.916 184.516 159.355C184.516 155.09 183.22 151.127 181.023 147.81ZM239.032 71.2903C245.968 71.2903 251.613 76.9348 251.613 83.871C251.613 90.8071 245.968 96.4516 239.032 96.4516C232.096 96.4516 226.452 90.8071 226.452 83.871C226.452 76.9348 232.096 71.2903 239.032 71.2903ZM20.9677 184.516C14.0316 184.516 8.3871 178.872 8.3871 171.935C8.3871 164.999 14.0316 159.355 20.9677 159.355C27.9039 159.355 33.5484 164.999 33.5484 171.935C33.5484 178.872 27.9039 184.516 20.9677 184.516ZM104.839 100.645C97.9026 100.645 92.2581 95.0006 92.2581 88.0645C92.2581 81.1284 97.9026 75.4839 104.839 75.4839C111.775 75.4839 117.419 81.1284 117.419 88.0645C117.419 95.0006 111.775 100.645 104.839 100.645ZM163.548 171.935C156.612 171.935 150.968 166.291 150.968 159.355C150.968 152.419 156.612 146.774 163.548 146.774C170.485 146.774 176.129 152.419 176.129 159.355C176.129 166.291 170.485 171.935 163.548 171.935Z" fill="#E9790D" fill-opacity="0.6"/>
<path d="M167.742 58.7097H191.507L213.871 75.4839V29.3548C213.871 13.1719 200.699 0 184.516 0H167.742C151.559 0 138.387 13.1719 138.387 29.3548C138.387 45.5377 151.559 58.7097 167.742 58.7097ZM167.742 8.3871H184.516C196.078 8.3871 205.484 17.7932 205.484 29.3548V58.7097L194.3 50.3226H167.742C156.18 50.3226 146.774 40.9164 146.774 29.3548C146.774 17.7932 156.18 8.3871 167.742 8.3871Z" fill="#E9790D" fill-opacity="0.6"/>
<path d="M192.903 16.7742H159.355V25.1613H192.903V16.7742Z" fill="#E9790D" fill-opacity="0.6"/>
<path d="M176.129 33.5484H159.355V41.9355H176.129V33.5484Z" fill="#E9790D" fill-opacity="0.6"/>
<path d="M192.903 33.5484H184.516V41.9355H192.903V33.5484Z" fill="#E9790D" fill-opacity="0.6"/>
<path d="M29.3548 75.4839H53.1197L75.4839 92.2581V46.129C75.4839 29.9461 62.3119 16.7742 46.129 16.7742H29.3548C13.1719 16.7742 0 29.9461 0 46.129C0 62.3119 13.1719 75.4839 29.3548 75.4839ZM29.3548 25.1613H46.129C57.6906 25.1613 67.0968 34.5674 67.0968 46.129V75.4839L55.9126 67.0968H29.3548C17.7932 67.0968 8.3871 57.6907 8.3871 46.129C8.3871 34.5674 17.7932 25.1613 29.3548 25.1613Z" fill="#E9790D" fill-opacity="0.6"/>
<path d="M54.5162 33.5484H20.9678V41.9355H54.5162V33.5484Z" fill="#E9790D" fill-opacity="0.6"/>
<path d="M37.742 50.3226H20.9678V58.7097H37.742V50.3226Z" fill="#E9790D" fill-opacity="0.6"/>
<path d="M54.5162 50.3226H46.1292V58.7097H54.5162V50.3226Z" fill="#E9790D" fill-opacity="0.6"/>
<path d="M88.0646 201.29H64.2997L41.9355 184.516V230.645C41.9355 246.828 55.1075 260 71.2904 260H88.0646C104.247 260 117.419 246.828 117.419 230.645C117.419 214.462 104.247 201.29 88.0646 201.29ZM88.0646 251.613H71.2904C59.7288 251.613 50.3226 242.207 50.3226 230.645V201.29L61.5068 209.677H88.0646C99.6262 209.677 109.032 219.084 109.032 230.645C109.032 242.207 99.6262 251.613 88.0646 251.613Z" fill="#E9790D" fill-opacity="0.6"/>
<path d="M96.4517 234.839H62.9033V243.226H96.4517V234.839Z" fill="#E9790D" fill-opacity="0.6"/>
<path d="M96.4517 218.065H79.6775V226.452H96.4517V218.065Z" fill="#E9790D" fill-opacity="0.6"/>
<path d="M71.2904 218.065H62.9033V226.452H71.2904V218.065Z" fill="#E9790D" fill-opacity="0.6"/>
<path d="M230.645 192.903H206.88L184.516 176.129V222.258C184.516 238.441 197.688 251.613 213.871 251.613H230.645C246.828 251.613 260 238.441 260 222.258C260 206.075 246.828 192.903 230.645 192.903ZM230.645 243.226H213.871C202.309 243.226 192.903 233.82 192.903 222.258V192.903L204.087 201.29H230.645C242.207 201.29 251.613 210.696 251.613 222.258C251.613 233.82 242.207 243.226 230.645 243.226Z" fill="#E9790D" fill-opacity="0.6"/>
<path d="M239.032 226.452H205.484V234.839H239.032V226.452Z" fill="#E9790D" fill-opacity="0.6"/>
<path d="M239.032 209.677H222.258V218.065H239.032V209.677Z" fill="#E9790D" fill-opacity="0.6"/>
<path d="M213.871 209.677H205.484V218.065H213.871V209.677Z" fill="#E9790D" fill-opacity="0.6"/>
</g>
<defs>
<clipPath id="clip0_85_2582">
<rect width="260" height="260" fill="white"/>
</clipPath>
</defs>
</svg>
