<svg width="590" height="540" viewBox="0 0 590 540" fill="none" xmlns="http://www.w3.org/2000/svg">
<g clip-path="url(#clip0_1_160)">
<rect width="590" height="540" rx="20" fill="#002247"/>
<rect opacity="0.05" width="100" height="100" transform="matrix(1 0 0 -1 -5 570)" fill="white"/>
<rect opacity="0.05" width="100" height="100" transform="matrix(1 0 0 -1 95 570)" fill="white"/>
<rect opacity="0.05" width="100" height="100" transform="matrix(1 0 0 -1 195 570)" fill="white"/>
<rect opacity="0.1" width="100" height="100" transform="matrix(1 0 0 -1 295 570)" fill="white"/>
<rect opacity="0.1" width="100" height="100" transform="matrix(1 0 0 -1 395 570)" fill="white"/>
<rect opacity="0.2" width="100" height="100" transform="matrix(1 0 0 -1 495 570)" fill="white"/>
<rect opacity="0.05" width="100" height="100" transform="matrix(1 0 0 -1 -5 470)" fill="white"/>
<rect opacity="0.05" width="100" height="100" transform="matrix(1 0 0 -1 95 470)" fill="white"/>
<rect opacity="0.05" width="100" height="100" transform="matrix(1 0 0 -1 195 470)" fill="white"/>
<rect opacity="0.1" width="100" height="100" transform="matrix(1 0 0 -1 295 470)" fill="white"/>
<rect opacity="0.4" width="100" height="100" transform="matrix(1 0 0 -1 395 470)" fill="white"/>
<rect opacity="0.4" width="100" height="100" transform="matrix(1 0 0 -1 495 470)" fill="white"/>
<rect opacity="0.1" width="100" height="100" transform="matrix(1 0 0 -1 -5 370)" fill="white"/>
<rect opacity="0.1" width="100" height="100" transform="matrix(1 0 0 -1 95 370)" fill="white"/>
<rect opacity="0.1" width="100" height="100" transform="matrix(1 0 0 -1 195 370)" fill="white"/>
<rect opacity="0.4" width="100" height="100" transform="matrix(1 0 0 -1 295 370)" fill="white"/>
<rect opacity="0.3" width="100" height="100" transform="matrix(1 0 0 -1 395 370)" fill="white"/>
<rect opacity="0.2" width="100" height="100" transform="matrix(1 0 0 -1 495 370)" fill="white"/>
<rect opacity="0.1" width="100" height="100" transform="matrix(1 0 0 -1 -5 270)" fill="white"/>
<rect opacity="0.5" width="100" height="100" transform="matrix(1 0 0 -1 95 270)" fill="white"/>
<rect opacity="0.5" width="100" height="100" transform="matrix(1 0 0 -1 195 270)" fill="white"/>
<rect opacity="0.3" width="100" height="100" transform="matrix(1 0 0 -1 295 270)" fill="white"/>
<rect opacity="0.5" width="100" height="100" transform="matrix(1 0 0 -1 395 270)" fill="white"/>
<rect opacity="0.2" width="100" height="100" transform="matrix(1 0 0 -1 495 270)" fill="white"/>
<rect opacity="0.1" width="100" height="100" transform="matrix(1 0 0 -1 -5 170)" fill="white"/>
<rect opacity="0.4" width="100" height="100" transform="matrix(1 0 0 -1 95 170)" fill="white"/>
<rect opacity="0.3" width="100" height="100" transform="matrix(1 0 0 -1 195 170)" fill="white"/>
<rect opacity="0.3" width="100" height="100" transform="matrix(1 0 0 -1 295 170)" fill="white"/>
<rect opacity="0.2" width="100" height="100" transform="matrix(1 0 0 -1 395 170)" fill="white"/>
<rect opacity="0.2" width="100" height="100" transform="matrix(1 0 0 -1 495 170)" fill="white"/>
<rect opacity="0.5" width="100" height="100" transform="matrix(1 0 0 -1 -5 69.9998)" fill="white"/>
<rect opacity="0.5" width="100" height="100" transform="matrix(1 0 0 -1 95 69.9995)" fill="white"/>
<rect opacity="0.3" width="100" height="100" transform="matrix(1 0 0 -1 195 69.9995)" fill="white"/>
<rect opacity="0.2" width="100" height="100" transform="matrix(1 0 0 -1 295 69.9995)" fill="white"/>
<rect opacity="0.2" width="100" height="100" transform="matrix(1 0 0 -1 395 69.9995)" fill="white"/>
<rect opacity="0.1" width="100" height="100" transform="matrix(1 0 0 -1 495 69.9995)" fill="white"/>
<g clip-path="url(#clip1_1_160)">
<g clip-path="url(#clip2_1_160)">
<rect width="979.911" height="99.9956" rx="12.2489" transform="matrix(0.996073 -0.0885398 0.579524 0.814955 -109.661 -27.1111)" fill="white"/>
<g clip-path="url(#clip3_1_160)">
<path d="M-6.11307 -0.0693344C-6.52874 -0.652777 -7.12454 -1.20913 -7.84069 -1.68259C-8.55684 -2.15605 -9.36817 -2.52996 -10.1933 -2.76681L-29.1599 -8.15641C-29.9858 -8.3935 -30.7965 -8.48491 -31.5103 -8.42145C-32.2242 -8.35799 -32.8162 -8.1419 -33.2268 -7.79491L-42.7287 0.125227C-43.1389 0.471882 -43.3536 0.936993 -43.3512 1.4739C-43.3489 2.01081 -43.1296 2.60064 -42.7154 3.18421L-33.2507 16.4939C-32.8351 17.0774 -32.2393 17.6337 -31.5231 18.1072C-30.807 18.5807 -29.9956 18.9546 -29.1705 19.1914L-10.2039 24.581C-9.378 24.8181 -8.56735 24.9095 -7.85345 24.8461C-7.13956 24.7826 -6.54757 24.5665 -6.137 24.2195L3.3649 16.2994C3.77507 15.9527 3.98976 15.4876 3.98743 14.9507C3.9851 14.4138 3.76583 13.824 3.35163 13.2404L-6.11307 -0.0693344Z" stroke="#E9790D" stroke-width="4.08296" stroke-linecap="round" stroke-linejoin="round"/>
<path d="M-43.2886 1.46655L-19.682 8.21259M-19.682 8.21259L-7.9063 -1.67854M-19.682 8.21259L-7.85113 24.8498" stroke="#E9790D" stroke-width="4.08296" stroke-linecap="round" stroke-linejoin="round"/>
</g>
<path d="M47.718 13.9185L32.5981 -7.3438L36.5512 -7.69519L50.8192 12.3692L47.4764 10.7878L62.2272 9.47664L64.3354 12.4414L47.718 13.9185ZM75.2377 11.8544C73.3832 12.0192 71.5191 11.8241 69.6455 11.2689C67.772 10.7137 66.0097 9.84089 64.3589 8.65036C62.708 7.45983 61.2863 6.02605 60.0937 4.34903C58.887 2.65204 58.2217 1.15102 58.098 -0.154026C57.9742 -1.45907 58.3664 -2.51281 59.2746 -3.31524C60.1686 -4.13764 61.5428 -4.63126 63.3974 -4.7961C65.2519 -4.96095 67.123 -4.75581 69.0108 -4.18068C70.8844 -3.62552 72.6395 -2.76266 74.2762 -1.59209C75.9129 -0.421527 77.3346 1.01225 78.5413 2.70924C79.7339 4.38627 80.3991 5.88729 80.5371 7.21229C80.6751 8.5373 80.29 9.60102 79.3818 10.4035C78.4736 11.2059 77.0922 11.6895 75.2377 11.8544ZM73.2785 9.09926C74.9378 8.95176 75.8711 8.34876 76.0783 7.29024C76.2713 6.21175 75.7502 4.80405 74.5151 3.06713C73.2799 1.33021 71.8631 0.012746 70.2646 -0.885265C68.6519 -1.80324 67.0159 -2.18848 65.3566 -2.04099C63.7217 -1.89566 62.7955 -1.28267 62.5781 -0.202021C62.3709 0.856498 62.8849 2.25422 64.12 3.99114C65.3551 5.72806 66.7791 7.05551 68.3918 7.97348C70.0147 8.86932 71.6436 9.24458 73.2785 9.09926ZM96.0324 10.006C94.1779 10.1708 92.3138 9.97564 90.4403 9.42048C88.5667 8.86532 86.8044 7.99247 85.1536 6.80194C83.5027 5.61141 82.081 4.17763 80.8885 2.50061C79.6817 0.803618 79.0164 -0.6974 78.8927 -2.00245C78.7689 -3.30749 79.1611 -4.36123 80.0693 -5.16366C80.9633 -5.98605 82.3376 -6.47968 84.1921 -6.64452C86.0466 -6.80937 87.9178 -6.60423 89.8055 -6.0291C91.6791 -5.47394 93.4343 -4.61108 95.0709 -3.44051C96.7076 -2.26995 98.1293 -0.836168 99.336 0.860823C100.529 2.53785 101.194 4.03887 101.332 5.36388C101.47 6.68889 101.085 7.75261 100.176 8.55504C99.2683 9.35747 97.8869 9.84111 96.0324 10.006ZM94.0732 7.25084C95.7325 7.10334 96.6658 6.50034 96.873 5.44182C97.066 4.36333 96.5449 2.95563 95.3098 1.21871C94.0746 -0.518207 92.6578 -1.83567 91.0593 -2.73368C89.4466 -3.65166 87.8106 -4.0369 86.1513 -3.88941C84.5164 -3.74408 83.5902 -3.13109 83.3728 -2.05044C83.1656 -0.991921 83.6796 0.405799 84.9147 2.14272C86.1499 3.87964 87.5738 5.20709 89.1865 6.12506C90.8094 7.0209 92.4383 7.39616 94.0732 7.25084ZM108.556 8.5107L93.4358 -12.7516L97.3157 -13.0965L106.707 0.110106L109.854 -8.54352L114.759 -8.9795L111.916 -1.59466L126.381 6.92622L121.916 7.32315L110.723 0.612839L109.412 3.91336L112.436 8.16582L108.556 8.5107ZM136.692 6.39172C134.789 6.56091 132.901 6.36792 131.027 5.81276C129.178 5.25543 127.428 4.3815 125.777 3.19097C124.151 1.99827 122.741 0.563406 121.549 -1.11362C120.356 -2.79065 119.686 -4.2806 119.537 -5.58347C119.399 -6.90848 119.772 -7.97112 120.656 -8.77138C121.526 -9.59161 122.888 -10.0841 124.742 -10.249C126.499 -10.4052 128.29 -10.2035 130.115 -9.644C131.925 -9.10446 133.644 -8.23834 135.27 -7.04564C136.921 -5.85511 138.379 -4.37142 139.642 -2.59458L140.217 -1.78601L126.235 -0.543156C127.44 1.00541 128.771 2.12887 130.227 2.82724C131.708 3.52343 133.229 3.80212 134.791 3.6633C135.938 3.56136 136.734 3.25716 137.178 2.75069C137.622 2.24423 137.728 1.60864 137.495 0.843926L141.67 0.695664C142.209 2.21859 142.048 3.50648 141.188 4.55934C140.338 5.59005 138.84 6.20085 136.692 6.39172ZM124.531 -2.93891L134.414 -3.81736C133.284 -5.22401 132.038 -6.22768 130.677 -6.82839C129.34 -7.43127 128.001 -7.67307 126.659 -7.55377C125.268 -7.43013 124.377 -6.96883 123.985 -6.16985C123.603 -5.393 123.786 -4.31602 124.531 -2.93891ZM148.787 4.9346L137.458 -10.9972L141.008 -11.3127L144.157 -7.10325L143.764 -7.16381C143.01 -8.62512 142.801 -9.72098 143.138 -10.4514C143.499 -11.184 144.375 -11.6121 145.766 -11.7357L147.633 -11.9016L149.656 -9.05668L147.789 -8.89075C146.813 -8.80399 146.088 -8.60156 145.614 -8.28345C145.14 -7.96535 144.923 -7.52159 144.965 -6.95218C145.031 -6.38494 145.369 -5.67208 145.98 -4.8136L152.667 4.58972L148.787 4.9346ZM181.474 2.53853C179.4 2.7229 177.374 2.57395 175.396 2.0917C173.443 1.60728 171.637 0.855082 169.978 -0.164886C168.319 -1.18485 166.898 -2.41704 165.715 -3.86144L169.629 -4.43221C170.509 -3.44916 171.466 -2.63212 172.5 -1.98108C173.52 -1.35 174.609 -0.894907 175.767 -0.615798C176.936 -0.358823 178.167 -0.287815 179.46 -0.402773C180.582 -0.502549 181.456 -0.696946 182.081 -0.985966C182.716 -1.29712 183.077 -1.70072 183.165 -2.19678C183.254 -2.69284 183.064 -3.27029 182.595 -3.92912C182.169 -4.52806 181.61 -5.04085 180.917 -5.4675C180.235 -5.91629 179.259 -6.28588 177.989 -6.57627C176.729 -6.8888 175.012 -7.15014 172.839 -7.36028C170.467 -7.59517 168.481 -7.90687 166.881 -8.29536C165.282 -8.68385 163.939 -9.2225 162.853 -9.91131C161.776 -10.6222 160.848 -11.5267 160.067 -12.6248C159.201 -13.8426 158.795 -14.9422 158.85 -15.9235C158.914 -16.9269 159.433 -17.7478 160.406 -18.3861C161.379 -19.0245 162.805 -19.4272 164.684 -19.5942C166.661 -19.7699 168.557 -19.6201 170.374 -19.1448C172.215 -18.6717 173.908 -17.9518 175.451 -16.9852C177.019 -16.0208 178.376 -14.8785 179.523 -13.5582L175.588 -13.0174C174.883 -13.8251 174.067 -14.5167 173.139 -15.0922C172.197 -15.6877 171.19 -16.1183 170.119 -16.3839C169.034 -16.6695 167.894 -16.7592 166.698 -16.6529C165.185 -16.5184 164.195 -16.1227 163.728 -15.4656C163.272 -14.8307 163.377 -14.0441 164.045 -13.1057C164.47 -12.5068 165.003 -12.0129 165.643 -11.624C166.293 -11.2572 167.176 -10.9642 168.292 -10.745C169.432 -10.528 170.965 -10.3246 172.89 -10.1348C175.433 -9.91514 177.583 -9.5544 179.341 -9.05263C181.109 -8.57299 182.565 -7.94884 183.708 -7.18017C184.851 -6.41151 185.792 -5.5081 186.53 -4.46995C187.425 -3.21218 187.803 -2.07833 187.665 -1.06842C187.537 -0.0806394 186.943 0.72571 185.883 1.35063C184.822 1.97555 183.353 2.37151 181.474 2.53853ZM201.552 0.24436C199.697 0.409206 198.082 0.181291 196.707 -0.439385C195.332 -1.06006 194.119 -2.10909 193.068 -3.58647L182.144 -18.9492L186.023 -19.2941L196.778 -4.17092C197.303 -3.43223 197.86 -2.94048 198.449 -2.69568C199.039 -2.45088 199.736 -2.36427 200.541 -2.43585L203.323 -2.68312L205.176 -0.077741L201.552 0.24436ZM183.693 -12.3369L181.841 -14.9423L193.846 -16.0095L195.699 -13.4041L183.693 -12.3369ZM215.25 -0.591141C213.298 -0.417619 211.36 -0.807863 209.436 -1.76187C207.522 -2.73802 205.891 -4.17441 204.543 -6.07104L197.26 -16.3129L201.139 -16.6578L207.847 -7.22449C208.87 -5.78703 209.927 -4.75602 211.02 -4.13145C212.113 -3.50688 213.281 -3.24991 214.526 -3.36053C215.941 -3.48633 216.776 -3.95328 217.032 -4.76138C217.298 -5.59161 216.948 -6.68553 215.983 -8.04312L209.338 -17.3866L213.218 -17.7314L224.547 -1.79968L220.924 -1.47758L217.89 -5.63369L218.567 -5.50281C219.219 -4.07492 219.266 -2.93285 218.708 -2.07659C218.135 -1.24029 216.982 -0.745142 215.25 -0.591141ZM236.485 -2.47875C234.826 -2.33126 233.133 -2.5416 231.406 -3.10978C229.703 -3.68012 228.082 -4.55492 226.543 -5.73416C225.014 -6.93553 223.646 -8.38471 222.439 -10.0817C221.233 -11.7787 220.519 -13.2754 220.297 -14.5717C220.062 -15.8881 220.313 -16.9399 221.05 -17.7271C221.787 -18.5144 222.986 -18.9817 224.645 -19.1292C225.987 -19.2485 227.346 -19.1252 228.722 -18.7593C230.098 -18.3934 231.345 -17.825 232.464 -17.0542L227.076 -24.6307L230.956 -24.9756L246.076 -3.71332L242.452 -3.39122L240.639 -5.77721C240.712 -4.87101 240.378 -4.11956 239.635 -3.52283C238.902 -2.94825 237.852 -2.60022 236.485 -2.47875ZM235.551 -5.32497C236.6 -5.41824 237.335 -5.71702 237.755 -6.22131C238.174 -6.7256 238.281 -7.41436 238.075 -8.28757C237.869 -9.16079 237.355 -10.1764 236.531 -11.3343C235.68 -12.5322 234.767 -13.5231 233.795 -14.3069C232.808 -15.1107 231.8 -15.6897 230.77 -16.0439C229.725 -16.418 228.678 -16.5585 227.629 -16.4652C226.067 -16.3264 225.178 -15.7167 224.96 -14.636C224.729 -13.5753 225.231 -12.1765 226.466 -10.4396C227.687 -8.72264 229.116 -7.40626 230.753 -6.49045C232.39 -5.57465 233.989 -5.18615 235.551 -5.32497ZM250.571 -4.11292L239.242 -20.0447L243.122 -20.3895L254.451 -4.4578L250.571 -4.11292ZM237.529 -22.3441L235.272 -25.5184L239.298 -25.8763L241.555 -22.702L237.529 -22.3441ZM267.484 -5.23423C265.63 -5.06938 263.766 -5.26454 261.892 -5.8197C260.019 -6.37486 258.256 -7.24771 256.606 -8.43824C254.955 -9.62877 253.533 -11.0625 252.34 -12.7396C251.134 -14.4366 250.468 -15.9376 250.345 -17.2426C250.221 -18.5477 250.613 -19.6014 251.521 -20.4038C252.415 -21.2262 253.79 -21.7199 255.644 -21.8847C257.499 -22.0495 259.37 -21.8444 261.258 -21.2693C263.131 -20.7141 264.886 -19.8513 266.523 -18.6807C268.16 -17.5101 269.581 -16.0763 270.788 -14.3794C271.981 -12.7023 272.646 -11.2013 272.784 -9.8763C272.922 -8.55129 272.537 -7.48757 271.628 -6.68514C270.72 -5.88271 269.339 -5.39907 267.484 -5.23423ZM265.525 -7.98934C267.185 -8.13683 268.118 -8.73984 268.325 -9.79836C268.518 -10.8768 267.997 -12.2845 266.762 -14.0215C265.527 -15.7584 264.11 -17.0759 262.511 -17.9739C260.899 -18.8918 259.263 -19.2771 257.603 -19.1296C255.968 -18.9843 255.042 -18.3713 254.825 -17.2906C254.618 -16.2321 255.132 -14.8344 256.367 -13.0975C257.602 -11.3605 259.026 -10.0331 260.638 -9.11512C262.261 -8.21927 263.89 -7.84402 265.525 -7.98934Z" fill="#666666"/>
<rect width="979.911" height="99.9956" rx="12.2489" transform="matrix(0.996073 -0.0885398 0.579524 0.814955 -37.5137 74.3455)" fill="white"/>
<g clip-path="url(#clip4_1_160)">
<path d="M66.0339 101.387C65.6182 100.804 65.0224 100.247 64.3063 99.774C63.5901 99.3005 62.7788 98.9266 61.9537 98.6897L42.9871 93.3001C42.1612 93.063 41.3505 92.9716 40.6366 93.0351C39.9227 93.0986 39.3307 93.3146 38.9202 93.6616L29.4183 101.582C29.0081 101.928 28.7934 102.394 28.7957 102.93C28.7981 103.467 29.0173 104.057 29.4315 104.641L38.8962 117.95C39.3119 118.534 39.9077 119.09 40.6239 119.564C41.34 120.037 42.1513 120.411 42.9764 120.648L61.943 126.038C62.769 126.275 63.5796 126.366 64.2935 126.303C65.0074 126.239 65.5994 126.023 66.01 125.676L75.5119 117.756C75.922 117.409 76.1367 116.944 76.1344 116.407C76.1321 115.87 75.9128 115.281 75.4986 114.697L66.0339 101.387Z" stroke="#E9790D" stroke-width="4.08296" stroke-linecap="round" stroke-linejoin="round"/>
<path d="M28.8584 102.923L52.465 109.669M52.465 109.669L64.2407 99.7778M52.465 109.669L64.2958 126.306" stroke="#E9790D" stroke-width="4.08296" stroke-linecap="round" stroke-linejoin="round"/>
</g>
<path d="M129.576 115.021C127.502 115.206 125.476 115.057 123.499 114.574C121.546 114.09 119.74 113.338 118.08 112.318C116.421 111.298 115 110.066 113.817 108.621L117.731 108.051C118.612 109.034 119.569 109.851 120.603 110.502C121.622 111.133 122.711 111.588 123.87 111.867C125.038 112.124 126.269 112.195 127.562 112.08C128.685 111.98 129.558 111.786 130.183 111.497C130.818 111.186 131.18 110.782 131.268 110.286C131.356 109.79 131.166 109.212 130.698 108.554C130.272 107.955 129.712 107.442 129.02 107.015C128.338 106.566 127.361 106.197 126.091 105.906C124.831 105.594 123.114 105.333 120.941 105.122C118.569 104.888 116.583 104.576 114.984 104.187C113.384 103.799 112.042 103.26 110.955 102.571C109.879 101.861 108.95 100.956 108.169 99.858C107.303 98.6401 106.898 97.5406 106.952 96.5593C107.017 95.5559 107.536 94.735 108.509 94.0966C109.482 93.4582 110.908 93.0555 112.787 92.8885C114.763 92.7128 116.66 92.8626 118.477 93.3379C120.318 93.8111 122.01 94.5309 123.554 95.4975C125.121 96.4619 126.479 97.6043 127.625 98.9245L123.69 99.4654C122.986 98.6577 122.17 97.9661 121.242 97.3905C120.299 96.795 119.293 96.3645 118.222 96.0988C117.136 95.8132 115.996 95.7235 114.8 95.8298C113.287 95.9643 112.298 96.3601 111.831 97.0171C111.374 97.6521 111.48 98.4387 112.147 99.377C112.573 99.976 113.106 100.47 113.745 100.859C114.395 101.226 115.278 101.519 116.394 101.738C117.534 101.955 119.067 102.158 120.992 102.348C123.535 102.568 125.686 102.928 127.443 103.43C129.211 103.91 130.667 104.534 131.81 105.303C132.954 106.071 133.894 106.975 134.633 108.013C135.527 109.271 135.905 110.404 135.767 111.414C135.639 112.402 135.045 113.208 133.985 113.833C132.925 114.458 131.455 114.854 129.576 115.021ZM162.005 113.763L158.342 111.732C157.899 111.984 157.329 112.204 156.633 112.393C155.952 112.602 155.16 112.747 154.257 112.827C151.744 113.051 149.248 112.753 146.771 111.933C144.295 111.113 141.979 109.918 139.824 108.347C137.68 106.755 135.863 104.911 134.372 102.814C132.881 100.718 132.003 98.7901 131.738 97.0306C131.473 95.2712 131.883 93.8232 132.969 92.6866C134.064 91.5278 135.894 90.8346 138.456 90.6068C141.067 90.3747 143.618 90.6786 146.109 91.5185C148.61 92.3363 150.909 93.5436 153.004 95.1403C155.124 96.7349 156.929 98.5804 158.42 100.677C159.811 102.633 160.648 104.448 160.929 106.121C161.235 107.792 160.95 109.197 160.074 110.336L165.775 113.427L162.005 113.763ZM152.149 109.863C152.612 109.821 153.013 109.765 153.351 109.692C153.688 109.62 153.968 109.521 154.19 109.395L147.788 105.92L151.558 105.585L155.964 108.059C156.516 107.267 156.651 106.289 156.369 105.126C156.096 103.94 155.414 102.578 154.32 101.041C153.27 99.5637 152.012 98.2321 150.546 97.0464C149.104 95.8584 147.535 94.9472 145.839 94.3126C144.128 93.6581 142.37 93.4111 140.564 93.5716C138.783 93.7299 137.576 94.2405 136.944 95.1032C136.298 95.946 136.123 97.0124 136.417 98.3022C136.736 99.5899 137.421 100.972 138.472 102.45C139.508 103.907 140.747 105.23 142.188 106.418C143.654 107.604 145.235 108.514 146.932 109.148C148.653 109.781 150.392 110.019 152.149 109.863ZM169.962 110.922L154.842 89.6597L158.795 89.3083L173.063 109.373L169.72 107.791L184.471 106.48L186.579 109.445L169.962 110.922ZM205.326 111.281C198.977 107.388 194.241 103.245 191.118 98.8527C187.98 94.4406 186.612 89.9985 187.012 85.5266L190.452 85.2207C190.469 89.8042 191.996 94.2322 195.034 98.5046C196.553 100.641 198.458 102.753 200.747 104.842C203.047 106.909 205.72 108.953 208.767 110.975L205.326 111.281ZM207.304 107.603L201.554 85.5075L206.569 85.0618L231.059 105.491L226.85 105.865L220.531 100.537L209.916 101.48L211.513 107.229L207.304 107.603ZM209.074 98.4347L217.236 97.7092L206.237 88.3708L209.074 98.4347ZM237.646 104.906C236.377 105.018 235.161 104.84 233.997 104.37C232.832 103.901 231.831 103.077 230.994 101.899L218.28 84.0207L222.16 83.6759L234.661 101.255C234.916 101.614 235.218 101.874 235.565 102.034C235.937 102.192 236.342 102.251 236.782 102.212L238.319 102.076L240.172 104.681L237.646 104.906ZM247.253 104.052C245.984 104.164 244.767 103.986 243.603 103.516C242.439 103.047 241.438 102.223 240.601 101.045L227.887 83.1668L231.767 82.8219L244.267 100.401C244.523 100.76 244.824 101.02 245.172 101.18C245.544 101.338 245.949 101.398 246.388 101.358L247.926 101.222L249.778 103.827L247.253 104.052ZM266.666 102.326L248.236 87.0255L252.372 86.6578L266.709 98.8835L262.987 85.7143L267.16 85.3434L271.351 101.91L266.666 102.326ZM286.437 100.951C284.411 101.131 282.519 100.896 280.759 100.245C279.024 99.5931 277.667 98.5782 276.687 97.2006C275.708 95.823 275.448 94.7105 275.909 93.8629C276.38 92.9932 277.557 92.2943 279.438 91.7662L285.391 90.1226C284.511 88.8848 283.504 87.9979 282.371 87.4619C281.223 86.9059 279.954 86.6897 278.563 86.8133C277.318 86.9239 276.505 87.2403 276.124 87.7624C275.729 88.2645 275.709 88.9667 276.066 89.869L271.927 90.014C271.157 88.3843 271.166 87.0463 271.952 85.9999C272.763 84.9514 274.328 84.3241 276.646 84.1181C279.281 83.8838 281.694 84.2849 283.884 85.3214C286.084 86.3358 287.922 87.8811 289.399 89.9574L293.807 96.1564C294.077 96.5358 294.342 96.7988 294.602 96.9455C294.872 97.07 295.19 97.1161 295.556 97.0835L296.251 97.0217L298.04 99.5372C297.932 99.5681 297.751 99.6054 297.497 99.6492C297.243 99.693 296.97 99.7279 296.677 99.754C295.847 99.8277 295.049 99.7819 294.283 99.6165C293.541 99.449 292.846 99.1286 292.199 98.6556C291.537 98.1625 290.9 97.4867 290.29 96.6283L290.799 96.7422C291.101 97.4583 291.114 98.1152 290.838 98.7128C290.587 99.3082 290.075 99.8101 289.302 100.218C288.539 100.605 287.584 100.849 286.437 100.951ZM285.27 98.3799C286.441 98.2758 287.314 98.0072 287.888 97.5741C288.448 97.121 288.726 96.5444 288.721 95.8444C288.716 95.1444 288.415 94.3751 287.819 93.5366L287.095 92.5184L282.024 93.9243C280.98 94.2081 280.357 94.5714 280.152 95.014C279.959 95.4346 280.075 95.9443 280.501 96.5432C280.983 97.222 281.64 97.7262 282.471 98.0556C283.312 98.3629 284.245 98.471 285.27 98.3799ZM300.95 99.2786L289.621 83.3468L293.171 83.0312L296.32 87.2407L295.927 87.1802C295.173 85.7189 294.965 84.623 295.302 83.8926C295.663 83.16 296.539 82.7319 297.93 82.6083L299.796 82.4424L301.819 85.2873L299.953 85.4532C298.977 85.54 298.252 85.7424 297.777 86.0605C297.303 86.3786 297.087 86.8224 297.128 87.3918C297.194 87.9591 297.533 88.6719 298.143 89.5304L304.83 98.9337L300.95 99.2786ZM313.953 98.1228L302.623 82.1911L306.503 81.8462L317.832 97.7779L313.953 98.1228ZM300.91 79.8917L298.653 76.7173L302.679 76.3594L304.937 79.5338L300.91 79.8917ZM328.303 97.2293C326.278 97.4093 324.386 97.1742 322.626 96.524C320.891 95.8716 319.534 94.8567 318.554 93.4791C317.574 92.1016 317.315 90.989 317.776 90.1414C318.247 89.2717 319.424 88.5728 321.305 88.0447L327.258 86.4011C326.378 85.1633 325.371 84.2764 324.237 83.7404C323.09 83.1844 321.82 82.9682 320.429 83.0918C319.185 83.2024 318.372 83.5188 317.991 84.0409C317.596 84.543 317.576 85.2452 317.933 86.1475L313.794 86.2925C313.024 84.6628 313.032 83.3248 313.819 82.2784C314.63 81.2299 316.195 80.6026 318.513 80.3966C321.148 80.1623 323.561 80.5634 325.751 81.5999C327.951 82.6143 329.789 84.1596 331.266 86.2359L335.674 92.4349C335.944 92.8143 336.209 93.0773 336.469 93.224C336.739 93.3485 337.057 93.3946 337.423 93.362L338.118 93.3002L339.907 95.8158C339.799 95.8466 339.618 95.8839 339.364 95.9277C339.11 95.9715 338.836 96.0065 338.544 96.0325C337.714 96.1062 336.916 96.0604 336.15 95.895C335.408 95.7275 334.713 95.4071 334.065 94.9341C333.403 94.441 332.767 93.7652 332.157 92.9068L332.666 93.0207C332.968 93.7368 332.981 94.3937 332.705 94.9913C332.454 95.5867 331.942 96.0886 331.168 96.497C330.405 96.8832 329.45 97.1273 328.303 97.2293ZM327.137 94.6584C328.308 94.5543 329.181 94.2857 329.755 93.8526C330.315 93.3995 330.592 92.8229 330.588 92.1229C330.583 91.4229 330.282 90.6536 329.686 89.8151L328.962 88.7969L323.891 90.2028C322.847 90.4866 322.223 90.8499 322.019 91.2925C321.825 91.7131 321.941 92.2228 322.367 92.8217C322.85 93.5005 323.507 94.0047 324.338 94.3341C325.179 94.6414 326.112 94.7495 327.137 94.6584ZM342.817 95.5571L331.488 79.6253L335.038 79.3098L338.209 83.5492L337.584 83.3819C337.065 82.3242 336.884 81.4488 337.039 80.7557C337.195 80.0626 337.606 79.5273 338.271 79.1497C338.922 78.7522 339.761 78.5079 340.785 78.4168C342.25 78.2867 343.649 78.4488 344.984 78.9033C346.329 79.3356 347.572 79.9892 348.713 80.8642C349.865 81.7171 350.852 82.7225 351.676 83.8804L358.959 94.1223L355.079 94.4672L348.477 85.1836C347.81 84.2453 347.127 83.4675 346.429 82.8504C345.73 82.2332 344.98 81.7798 344.177 81.4903C343.375 81.2008 342.522 81.0962 341.619 81.1764C340.253 81.2979 339.405 81.7659 339.076 82.5805C338.748 83.3952 339.087 84.5112 340.095 85.9287L346.697 95.2122L342.817 95.5571ZM370.149 93.1276C368.295 93.2924 366.68 93.0645 365.304 92.4438C363.929 91.8231 362.716 90.7741 361.666 89.2967L350.741 73.934L354.621 73.5891L365.375 88.7123C365.9 89.451 366.458 89.9427 367.047 90.1875C367.636 90.4323 368.333 90.5189 369.138 90.4474L371.92 90.2001L373.773 92.8055L370.149 93.1276ZM352.291 80.5463L350.438 77.9409L362.444 76.8737L364.296 79.4791L352.291 80.5463ZM384.552 92.2294C382.722 92.3921 381.009 92.3002 379.414 91.9538C377.843 91.6053 376.431 91.0621 375.18 90.3242C373.915 89.5664 372.857 88.6628 372.007 87.6133L375.89 87.1089C376.71 87.97 377.671 88.6276 378.772 89.0816C379.873 89.5356 381.168 89.6964 382.657 89.5641C383.877 89.4557 384.727 89.2103 385.207 88.828C385.688 88.4456 385.68 87.9051 385.183 87.2063C384.913 86.827 384.564 86.5184 384.135 86.2805C383.717 86.0206 383.114 85.83 382.328 85.7089C381.527 85.5678 380.416 85.4649 378.995 85.4002C376.854 85.2721 375.093 85.0572 373.711 84.7555C372.329 84.4538 371.186 84.0141 370.282 83.4364C369.379 82.8587 368.614 82.1307 367.99 81.2522C366.953 79.7948 366.768 78.5483 367.432 77.5128C368.121 76.4752 369.722 75.8446 372.236 75.6212C373.919 75.4716 375.505 75.5853 376.993 75.9625C378.466 76.3198 379.804 76.8695 381.006 77.6117C382.219 78.3317 383.258 79.1733 384.125 80.1364L380.263 80.6707C379.743 80.1225 379.159 79.6651 378.509 79.2983C377.869 78.9094 377.178 78.6312 376.436 78.4637C375.68 78.2761 374.9 78.2182 374.094 78.2898C372.85 78.4004 372.065 78.6824 371.739 79.136C371.412 79.5895 371.477 80.1357 371.931 80.7745C372.272 81.2537 372.683 81.6311 373.164 81.9067C373.67 82.1801 374.311 82.3885 375.087 82.5317C375.849 82.655 376.805 82.7399 377.954 82.7864C380.178 82.8858 382.012 83.0942 383.457 83.4116C384.888 83.7089 386.048 84.1364 386.938 84.6942C387.827 85.2519 388.577 85.96 389.188 86.8185C389.898 87.8167 390.159 88.6956 389.973 89.4551C389.787 90.2146 389.231 90.8371 388.305 91.3227C387.364 91.7884 386.114 92.0906 384.552 92.2294ZM399.744 93.9993L396.303 94.3051C396.283 92.0145 395.891 89.7674 395.129 87.564C394.376 85.3384 393.241 83.1575 391.721 81.0213C388.683 76.7489 384.106 72.592 377.989 68.5508L381.43 68.245C387.764 72.1183 392.5 76.261 395.638 80.6732C398.761 85.0654 400.13 89.5074 399.744 93.9993Z" fill="#666666"/>
<rect width="979.911" height="103.996" rx="12.2489" transform="matrix(0.996073 -0.0885398 0.579524 0.814955 34.6331 175.802)" fill="white"/>
<g clip-path="url(#clip5_1_160)">
<path d="M139.34 204.474C138.924 203.89 138.328 203.334 137.612 202.86C136.896 202.387 136.084 202.013 135.259 201.776L116.293 196.387C115.467 196.149 114.656 196.058 113.942 196.122C113.228 196.185 112.636 196.401 112.226 196.748L102.724 204.668C102.314 205.015 102.099 205.48 102.101 206.017C102.104 206.554 102.323 207.144 102.737 207.727L112.202 221.037C112.618 221.62 113.213 222.177 113.93 222.65C114.646 223.124 115.457 223.498 116.282 223.734L135.249 229.124C136.075 229.361 136.885 229.452 137.599 229.389C138.313 229.326 138.905 229.109 139.316 228.762L148.818 220.842C149.228 220.496 149.442 220.031 149.44 219.494C149.438 218.957 149.218 218.367 148.804 217.783L139.34 204.474Z" stroke="#E9790D" stroke-width="4.08296" stroke-linecap="round" stroke-linejoin="round"/>
<path d="M102.164 206.009L125.771 212.755M125.771 212.755L137.546 202.864M125.771 212.755L137.602 229.392" stroke="#E9790D" stroke-width="4.08296" stroke-linecap="round" stroke-linejoin="round"/>
</g>
<path d="M193.171 218.461L178.051 197.199L194.961 195.696L197.07 198.661L184.112 199.813L188.521 206.012L201.039 204.899L203.083 207.774L190.565 208.886L195.016 215.145L208.266 213.968L210.374 216.932L193.171 218.461ZM212.574 216.737L213.846 207.963L201.538 200.779L205.857 200.395L214.719 205.689L215.3 199.556L219.729 199.162L218.61 207.603L231.351 215.068L227.032 215.452L217.694 209.818L216.966 216.346L212.574 216.737ZM241.736 214.527C239.881 214.692 238.017 214.496 236.143 213.941C234.27 213.386 232.508 212.513 230.857 211.323C229.206 210.132 227.784 208.698 226.592 207.021C225.399 205.344 224.741 203.853 224.617 202.548C224.479 201.223 224.864 200.16 225.773 199.357C226.667 198.535 228.041 198.041 229.895 197.876C231.481 197.735 233.048 197.84 234.594 198.191C236.151 198.519 237.613 199.079 238.98 199.871C240.371 200.66 241.617 201.663 242.717 202.882L238.782 203.422C237.848 202.402 236.775 201.659 235.562 201.193C234.335 200.708 233.099 200.521 231.854 200.631C230.22 200.777 229.293 201.39 229.076 202.47C228.869 203.529 229.383 204.927 230.618 206.663C231.853 208.4 233.277 209.728 234.89 210.646C236.513 211.542 238.142 211.917 239.776 211.772C241.021 211.661 241.859 211.289 242.291 210.657C242.709 210.004 242.604 209.09 241.976 207.915L246.167 207.733C246.813 208.97 247.065 210.073 246.923 211.041C246.806 212.006 246.302 212.794 245.413 213.404C244.547 214.011 243.322 214.386 241.736 214.527ZM261.637 212.758C259.733 212.927 257.845 212.734 255.971 212.179C254.122 211.621 252.372 210.747 250.721 209.557C249.095 208.364 247.685 206.929 246.493 205.252C245.3 203.575 244.63 202.085 244.482 200.783C244.344 199.458 244.717 198.395 245.6 197.595C246.47 196.774 247.832 196.282 249.687 196.117C251.443 195.961 253.234 196.163 255.059 196.722C256.87 197.262 258.588 198.128 260.215 199.32C261.866 200.511 263.323 201.995 264.586 203.771L265.161 204.58L251.179 205.823C252.384 207.371 253.715 208.495 255.171 209.193C256.652 209.889 258.174 210.168 259.735 210.029C260.882 209.927 261.678 209.623 262.122 209.117C262.566 208.61 262.672 207.975 262.439 207.21L266.615 207.062C267.153 208.585 266.992 209.872 266.132 210.925C265.283 211.956 263.784 212.567 261.637 212.758ZM249.476 203.427L259.358 202.549C258.228 201.142 256.983 200.138 255.621 199.538C254.285 198.935 252.945 198.693 251.603 198.812C250.212 198.936 249.321 199.397 248.929 200.196C248.548 200.973 248.73 202.05 249.476 203.427ZM278.156 210.907C276.887 211.02 275.67 210.842 274.506 210.372C273.342 209.902 272.341 209.079 271.503 207.901L258.79 190.022L262.67 189.678L275.17 207.256C275.426 207.616 275.727 207.875 276.075 208.036C276.446 208.194 276.852 208.253 277.291 208.214L278.828 208.077L280.681 210.683L278.156 210.907ZM298.667 212.586C292.318 208.693 287.582 204.55 284.459 200.158C281.321 195.746 279.953 191.304 280.353 186.832L283.794 186.526C283.81 191.11 285.337 195.538 288.375 199.81C289.895 201.946 291.799 204.059 294.089 206.148C296.389 208.215 299.062 210.259 302.108 212.281L298.667 212.586ZM313.078 208.313C310.613 208.532 308.169 208.25 305.744 207.468C303.306 206.666 301.034 205.477 298.928 203.903C296.809 202.308 294.982 200.433 293.449 198.277C291.93 196.14 291.038 194.193 290.772 192.433C290.531 190.671 290.961 189.232 292.061 188.116C293.146 186.979 294.934 186.3 297.423 186.079C299.546 185.89 301.559 186.04 303.463 186.529C305.392 187.016 307.167 187.76 308.787 188.762C310.432 189.762 311.916 190.936 313.237 192.283L309.229 192.83C308.013 191.559 306.609 190.569 305.016 189.862C303.409 189.134 301.581 188.861 299.531 189.044C297.725 189.204 296.512 189.705 295.89 190.545C295.268 191.386 295.117 192.45 295.436 193.738C295.779 195.023 296.484 196.415 297.548 197.912C298.656 199.469 299.911 200.833 301.314 202.003C302.741 203.171 304.284 204.064 305.941 204.68C307.61 205.275 309.347 205.492 311.152 205.332C312.568 205.206 313.61 204.848 314.28 204.258C314.95 203.667 315.26 202.918 315.211 202.01C315.186 201.099 314.829 200.123 314.14 199.08L307.185 199.698L305.247 196.973L315.972 196.02L323.681 206.861L320.972 207.101L317.309 202.333L318.077 202.646C318.49 203.629 318.544 204.526 318.24 205.338C317.936 206.151 317.335 206.82 316.437 207.345C315.564 207.869 314.444 208.191 313.078 208.313ZM336.479 206.105C334.575 206.274 332.687 206.081 330.813 205.526C328.964 204.969 327.214 204.095 325.563 202.904C323.937 201.712 322.527 200.277 321.335 198.6C320.142 196.923 319.472 195.433 319.323 194.13C319.186 192.805 319.558 191.742 320.442 190.942C321.312 190.122 322.674 189.629 324.528 189.464C326.285 189.308 328.076 189.51 329.901 190.069C331.712 190.609 333.43 191.475 335.057 192.668C336.707 193.858 338.165 195.342 339.428 197.119L340.003 197.927L326.021 199.17C327.226 200.719 328.557 201.842 330.013 202.541C331.494 203.237 333.016 203.516 334.577 203.377C335.724 203.275 336.52 202.971 336.964 202.464C337.408 201.958 337.514 201.322 337.281 200.557L341.457 200.409C341.995 201.932 341.834 203.22 340.974 204.273C340.124 205.303 338.626 205.914 336.479 206.105ZM324.317 196.774L334.2 195.896C333.07 194.489 331.824 193.486 330.463 192.885C329.126 192.282 327.787 192.04 326.445 192.16C325.054 192.283 324.163 192.745 323.771 193.544C323.389 194.32 323.572 195.397 324.317 196.774ZM348.573 204.648L337.244 188.716L340.794 188.401L343.964 192.64L343.34 192.473C342.821 191.415 342.639 190.54 342.795 189.847C342.951 189.154 343.362 188.618 344.027 188.241C344.678 187.843 345.516 187.599 346.541 187.508C348.005 187.378 349.405 187.54 350.74 187.994C352.085 188.426 353.328 189.08 354.469 189.955C355.621 190.808 356.608 191.813 357.431 192.971L364.714 203.213L360.835 203.558L354.233 194.275C353.566 193.336 352.883 192.558 352.185 191.941C351.486 191.324 350.736 190.871 349.933 190.581C349.131 190.292 348.278 190.187 347.375 190.267C346.009 190.389 345.161 190.857 344.832 191.671C344.503 192.486 344.843 193.602 345.851 195.02L352.453 204.303L348.573 204.648ZM377.675 202.443C375.771 202.612 373.883 202.419 372.009 201.864C370.16 201.307 368.41 200.433 366.759 199.242C365.133 198.05 363.723 196.615 362.531 194.938C361.338 193.261 360.668 191.771 360.52 190.468C360.382 189.143 360.755 188.08 361.638 187.28C362.508 186.46 363.87 185.967 365.725 185.803C367.482 185.646 369.272 185.848 371.097 186.408C372.908 186.947 374.626 187.813 376.253 189.006C377.904 190.196 379.361 191.68 380.624 193.457L381.199 194.265L367.217 195.508C368.422 197.057 369.753 198.18 371.209 198.879C372.69 199.575 374.212 199.854 375.773 199.715C376.92 199.613 377.716 199.309 378.16 198.802C378.604 198.296 378.71 197.66 378.477 196.895L382.653 196.747C383.191 198.27 383.03 199.558 382.17 200.611C381.321 201.642 379.822 202.252 377.675 202.443ZM365.514 193.113L375.396 192.234C374.266 190.827 373.021 189.824 371.659 189.223C370.323 188.62 368.983 188.378 367.641 188.498C366.25 188.621 365.359 189.083 364.967 189.882C364.586 190.659 364.768 191.735 365.514 193.113ZM389.769 200.986L378.44 185.054L381.99 184.739L385.139 188.948L384.746 188.888C383.992 187.426 383.784 186.331 384.121 185.6C384.482 184.868 385.358 184.439 386.749 184.316L388.615 184.15L390.638 186.995L388.772 187.161C387.796 187.248 387.07 187.45 386.596 187.768C386.122 188.086 385.906 188.53 385.947 189.099C386.013 189.667 386.352 190.379 386.962 191.238L393.649 200.641L389.769 200.986ZM408.123 199.737C406.098 199.917 404.206 199.682 402.446 199.031C400.711 198.379 399.353 197.364 398.374 195.987C397.394 194.609 397.135 193.496 397.596 192.649C398.067 191.779 399.243 191.08 401.125 190.552L407.078 188.909C406.198 187.671 405.191 186.784 404.057 186.248C402.91 185.692 401.64 185.476 400.249 185.599C399.005 185.71 398.192 186.026 397.811 186.548C397.416 187.05 397.396 187.753 397.752 188.655L393.614 188.8C392.844 187.17 392.852 185.832 393.639 184.786C394.45 183.737 396.015 183.11 398.333 182.904C400.968 182.67 403.381 183.071 405.571 184.107C407.771 185.122 409.609 186.667 411.086 188.743L415.494 194.942C415.764 195.322 416.028 195.585 416.288 195.731C416.559 195.856 416.877 195.902 417.243 195.869L417.938 195.808L419.727 198.323C419.619 198.354 419.438 198.391 419.184 198.435C418.93 198.479 418.656 198.514 418.363 198.54C417.534 198.614 416.736 198.568 415.97 198.402C415.228 198.235 414.533 197.915 413.885 197.441C413.223 196.948 412.587 196.273 411.977 195.414L412.486 195.528C412.787 196.244 412.8 196.901 412.525 197.499C412.274 198.094 411.762 198.596 410.988 199.004C410.225 199.391 409.27 199.635 408.123 199.737ZM406.957 197.166C408.128 197.062 409.001 196.793 409.575 196.36C410.135 195.907 410.412 195.33 410.407 194.63C410.403 193.93 410.102 193.161 409.506 192.322L408.782 191.304L403.711 192.71C402.667 192.994 402.043 193.357 401.839 193.8C401.645 194.22 401.761 194.73 402.187 195.329C402.67 196.008 403.327 196.512 404.158 196.842C404.999 197.149 405.932 197.257 406.957 197.166ZM426.633 197.709C425.364 197.822 424.147 197.644 422.983 197.174C421.819 196.704 420.818 195.881 419.98 194.703L407.267 176.824L411.147 176.48L423.647 194.058C423.903 194.418 424.204 194.678 424.552 194.838C424.923 194.996 425.329 195.055 425.768 195.016L427.305 194.879L429.158 197.485L426.633 197.709ZM448.363 196.287C445.704 196.524 443.282 196.219 441.097 195.373C438.899 194.507 437.154 193.166 435.862 191.349C435.209 190.43 434.785 189.598 434.592 188.851C434.422 188.102 434.488 187.374 434.791 186.668C435.079 185.942 435.621 185.172 436.417 184.358C435.444 183.829 434.585 183.333 433.84 182.868C433.08 182.384 432.406 181.892 431.817 181.392C431.239 180.871 430.729 180.3 430.289 179.681C429.168 178.104 428.885 176.813 429.442 175.809C430.009 174.782 431.366 174.173 433.514 173.982C434.953 173.854 436.315 173.945 437.6 174.256C438.87 174.546 440.017 175.028 441.04 175.701C442.05 176.354 442.895 177.16 443.577 178.118C444.414 179.296 444.713 180.373 444.474 181.35C444.258 182.324 443.542 183.396 442.324 184.566L451.55 189.604C451.716 188.634 451.153 187.241 449.861 185.424L453.991 185.375C454.78 186.558 455.32 187.719 455.613 188.861C455.931 190 455.966 190.963 455.721 191.749L461.236 194.633L456.624 195.043L454.564 193.953C454.187 194.517 453.471 195.005 452.415 195.418C451.398 195.848 450.047 196.137 448.363 196.287ZM446.7 193.347C447.798 193.249 448.642 193.068 449.232 192.803C449.823 192.538 450.199 192.229 450.362 191.875L440.189 186.379C439.486 187.142 439.106 187.866 439.048 188.55C438.975 189.215 439.237 189.966 439.834 190.805C440.473 191.703 441.362 192.388 442.502 192.86C443.666 193.33 445.065 193.492 446.7 193.347ZM438.784 182.652C439.315 182.159 439.709 181.71 439.966 181.305C440.209 180.88 440.298 180.458 440.234 180.039C440.169 179.62 439.974 179.181 439.647 178.722C439.193 178.083 438.614 177.615 437.909 177.317C437.214 176.996 436.464 176.872 435.659 176.943C434.78 177.022 434.219 177.273 433.977 177.698C433.759 178.121 433.898 178.681 434.395 179.38C434.65 179.739 434.967 180.093 435.344 180.442C435.708 180.77 436.158 181.112 436.697 181.468C437.259 181.821 437.955 182.216 438.784 182.652ZM473.262 193.565L458.142 172.302L466.487 171.56C470.562 171.198 474.358 171.848 477.875 173.509C481.377 175.151 484.342 177.679 486.77 181.093C489.183 184.487 489.957 187.198 489.091 189.228C488.25 191.256 485.829 192.447 481.827 192.803L473.262 193.565ZM475.107 190.248L479.499 189.858C482.378 189.602 484.078 188.782 484.599 187.399C485.13 185.993 484.487 184.012 482.67 181.457C480.825 178.862 478.735 176.999 476.401 175.869C474.077 174.717 471.475 174.269 468.596 174.525L464.203 174.916L475.107 190.248ZM504.296 191.188C502.271 191.368 500.378 191.133 498.619 190.483C496.884 189.83 495.526 188.815 494.547 187.438C493.567 186.06 493.308 184.948 493.769 184.1C494.24 183.23 495.416 182.532 497.298 182.003L503.251 180.36C502.37 179.122 501.364 178.235 500.23 177.699C499.082 177.143 497.813 176.927 496.422 177.051C495.178 177.161 494.365 177.478 493.984 178C493.588 178.502 493.569 179.204 493.925 180.106L489.786 180.251C489.017 178.622 489.025 177.284 489.812 176.237C490.623 175.189 492.187 174.561 494.505 174.355C497.141 174.121 499.553 174.522 501.743 175.559C503.943 176.573 505.782 178.118 507.258 180.195L511.666 186.394C511.936 186.773 512.201 187.036 512.461 187.183C512.731 187.307 513.049 187.353 513.415 187.321L514.111 187.259L515.9 189.774C515.792 189.805 515.611 189.843 515.357 189.886C515.102 189.93 514.829 189.965 514.536 189.991C513.706 190.065 512.908 190.019 512.142 189.854C511.4 189.686 510.706 189.366 510.058 188.893C509.396 188.4 508.76 187.724 508.149 186.866L508.658 186.979C508.96 187.696 508.973 188.352 508.698 188.95C508.447 189.545 507.934 190.047 507.161 190.456C506.398 190.842 505.443 191.086 504.296 191.188ZM503.129 188.617C504.301 188.513 505.173 188.244 505.748 187.811C506.307 187.358 506.585 186.782 506.58 186.082C506.575 185.382 506.275 184.612 505.678 183.774L504.954 182.756L499.883 184.162C498.84 184.445 498.216 184.809 498.012 185.251C497.818 185.672 497.934 186.182 498.36 186.78C498.843 187.459 499.499 187.963 500.33 188.293C501.172 188.6 502.105 188.708 503.129 188.617ZM525.276 188.941C523.421 189.106 521.806 188.878 520.431 188.257C519.055 187.637 517.842 186.588 516.792 185.11L505.867 169.747L509.747 169.403L520.501 184.526C521.027 185.264 521.584 185.756 522.173 186.001C522.762 186.246 523.459 186.332 524.265 186.261L527.046 186.014L528.899 188.619L525.276 188.941ZM507.417 176.36L505.564 173.754L517.57 172.687L519.423 175.293L507.417 176.36ZM537.843 188.206C535.818 188.386 533.925 188.151 532.166 187.501C530.43 186.848 529.073 185.833 528.093 184.456C527.114 183.078 526.855 181.966 527.316 181.118C527.787 180.248 528.963 179.55 530.845 179.021L536.798 177.378C535.917 176.14 534.91 175.253 533.777 174.717C532.629 174.161 531.36 173.945 529.969 174.069C528.724 174.179 527.912 174.496 527.531 175.018C527.135 175.52 527.116 176.222 527.472 177.124L523.333 177.269C522.563 175.64 522.572 174.302 523.359 173.255C524.17 172.207 525.734 171.579 528.052 171.373C530.688 171.139 533.1 171.54 535.29 172.577C537.49 173.591 539.329 175.136 540.805 177.213L545.213 183.412C545.483 183.791 545.748 184.054 546.008 184.201C546.278 184.325 546.596 184.371 546.962 184.339L547.658 184.277L549.447 186.793C549.339 186.823 549.158 186.861 548.903 186.904C548.649 186.948 548.376 186.983 548.083 187.009C547.253 187.083 546.455 187.037 545.689 186.872C544.947 186.704 544.253 186.384 543.605 185.911C542.943 185.418 542.307 184.742 541.696 183.884L542.205 183.998C542.507 184.714 542.52 185.37 542.245 185.968C541.993 186.564 541.481 187.065 540.708 187.474C539.945 187.86 538.99 188.104 537.843 188.206ZM536.676 185.635C537.848 185.531 538.72 185.262 539.294 184.829C539.854 184.376 540.132 183.8 540.127 183.1C540.122 182.4 539.822 181.63 539.225 180.792L538.501 179.774L533.43 181.18C532.387 181.463 531.763 181.827 531.559 182.269C531.365 182.69 531.481 183.2 531.907 183.799C532.389 184.477 533.046 184.981 533.877 185.311C534.718 185.618 535.651 185.726 536.676 185.635ZM558.985 185.945L553.235 163.849L558.25 163.404L582.74 183.833L578.531 184.207L572.212 178.879L561.597 179.822L563.194 185.571L558.985 185.945ZM560.755 176.777L568.917 176.051L557.918 166.713L560.755 176.777ZM585.153 183.619L573.823 167.687L577.374 167.371L580.544 171.611L579.919 171.443C579.401 170.386 579.219 169.51 579.375 168.817C579.531 168.124 579.941 167.589 580.607 167.211C581.258 166.814 582.096 166.569 583.121 166.478C584.585 166.348 585.985 166.51 587.32 166.965C588.665 167.397 589.908 168.051 591.049 168.926C592.2 169.779 593.188 170.784 594.011 171.942L601.294 182.184L597.415 182.529L590.813 173.245C590.146 172.307 589.463 171.529 588.765 170.912C588.066 170.295 587.316 169.841 586.513 169.552C585.711 169.262 584.858 169.158 583.955 169.238C582.589 169.359 581.741 169.828 581.412 170.642C581.083 171.457 581.423 172.573 582.431 173.99L589.033 183.274L585.153 183.619ZM611.728 181.638C609.703 181.819 607.81 181.583 606.051 180.933C604.316 180.281 602.958 179.266 601.979 177.888C600.999 176.511 600.74 175.398 601.201 174.551C601.672 173.681 602.848 172.982 604.73 172.454L610.683 170.81C609.803 169.573 608.796 168.686 607.662 168.15C606.514 167.594 605.245 167.377 603.854 167.501C602.61 167.612 601.797 167.928 601.416 168.45C601.021 168.952 601.001 169.654 601.357 170.557L597.219 170.702C596.449 169.072 596.457 167.734 597.244 166.688C598.055 165.639 599.619 165.012 601.938 164.806C604.573 164.572 606.986 164.973 609.176 166.009C611.376 167.023 613.214 168.569 614.69 170.645L619.099 176.844C619.368 177.223 619.633 177.486 619.893 177.633C620.163 177.758 620.482 177.804 620.848 177.771L621.543 177.709L623.332 180.225C623.224 180.256 623.043 180.293 622.789 180.337C622.535 180.381 622.261 180.416 621.968 180.442C621.139 180.515 620.341 180.47 619.574 180.304C618.833 180.137 618.138 179.816 617.49 179.343C616.828 178.85 616.192 178.174 615.581 177.316L616.091 177.43C616.392 178.146 616.405 178.803 616.13 179.401C615.879 179.996 615.366 180.498 614.593 180.906C613.83 181.292 612.875 181.537 611.728 181.638ZM610.562 179.068C611.733 178.964 612.606 178.695 613.18 178.262C613.74 177.809 614.017 177.232 614.012 176.532C614.007 175.832 613.707 175.063 613.111 174.224L612.386 173.206L607.315 174.612C606.272 174.896 605.648 175.259 605.444 175.702C605.25 176.122 605.366 176.632 605.792 177.231C606.275 177.91 606.932 178.414 607.763 178.743C608.604 179.051 609.537 179.159 610.562 179.068ZM630.237 179.611C628.968 179.724 627.752 179.546 626.588 179.076C625.424 178.606 624.423 177.782 623.585 176.605L610.872 158.726L614.751 158.381L627.252 175.96C627.508 176.32 627.809 176.579 628.156 176.739C628.528 176.897 628.934 176.957 629.373 176.918L630.91 176.781L632.763 179.387L630.237 179.611ZM639.247 183.586L637.394 180.981L639.774 180.769C640.432 180.711 640.864 180.588 641.067 180.4C641.271 180.212 641.323 179.921 641.224 179.526L640.91 178.153L639.702 178.26L621.686 163.433L625.785 163.068L640.031 175.111L636.217 162.141L640.353 161.773L645.243 180.251C645.505 181.204 645.395 181.925 644.913 182.414C644.454 182.901 643.542 183.204 642.175 183.326L639.247 183.586ZM661.429 176.839C659.575 177.003 657.96 176.775 656.584 176.155C655.209 175.534 653.996 174.485 652.945 173.008L642.021 157.645L645.901 157.3L656.655 172.423C657.18 173.162 657.737 173.654 658.327 173.898C658.916 174.143 659.613 174.23 660.418 174.158L663.2 173.911L665.053 176.516L661.429 176.839ZM643.571 164.257L641.718 161.652L653.724 160.585L655.576 163.19L643.571 164.257ZM668.394 176.219L657.065 160.288L660.945 159.943L672.274 175.875L668.394 176.219ZM655.352 157.988L653.095 154.814L657.121 154.456L659.379 157.63L655.352 157.988ZM685.308 175.098C683.453 175.263 681.589 175.068 679.715 174.513C677.842 173.957 676.08 173.085 674.429 171.894C672.778 170.704 671.356 169.27 670.164 167.593C668.971 165.916 668.313 164.425 668.189 163.12C668.051 161.795 668.436 160.731 669.344 159.928C670.238 159.106 671.613 158.612 673.467 158.448C675.053 158.307 676.62 158.412 678.166 158.762C679.723 159.091 681.185 159.651 682.552 160.442C683.943 161.231 685.189 162.235 686.289 163.453L682.353 163.994C681.42 162.973 680.347 162.23 679.134 161.765C677.907 161.279 676.671 161.092 675.426 161.203C673.791 161.348 672.865 161.961 672.648 163.042C672.441 164.1 672.955 165.498 674.19 167.235C675.425 168.972 676.849 170.299 678.462 171.217C680.085 172.113 681.713 172.488 683.348 172.343C684.593 172.232 685.431 171.861 685.863 171.228C686.281 170.575 686.176 169.661 685.548 168.486L689.738 168.304C690.385 169.542 690.637 170.644 690.495 171.612C690.378 172.578 689.874 173.366 688.984 173.975C688.119 174.583 686.894 174.957 685.308 175.098ZM704.696 173.375C702.866 173.537 701.153 173.445 699.558 173.099C697.987 172.751 696.576 172.207 695.325 171.469C694.059 170.712 693.002 169.808 692.152 168.759L696.035 168.254C696.855 169.115 697.815 169.773 698.916 170.227C700.018 170.681 701.312 170.842 702.801 170.709C704.021 170.601 704.871 170.356 705.352 169.973C705.832 169.591 705.824 169.05 705.327 168.352C705.057 167.972 704.708 167.664 704.28 167.426C703.861 167.166 703.259 166.975 702.472 166.854C701.671 166.713 700.56 166.61 699.139 166.545C696.999 166.417 695.237 166.202 693.855 165.901C692.473 165.599 691.33 165.159 690.427 164.582C689.523 164.004 688.759 163.276 688.134 162.397C687.098 160.94 686.912 159.694 687.576 158.658C688.265 157.62 689.867 156.99 692.38 156.766C694.064 156.617 695.649 156.731 697.137 157.108C698.61 157.465 699.948 158.015 701.151 158.757C702.363 159.477 703.403 160.319 704.269 161.282L700.407 161.816C699.888 161.268 699.303 160.81 698.653 160.444C698.013 160.055 697.322 159.776 696.581 159.609C695.825 159.421 695.044 159.363 694.239 159.435C692.994 159.546 692.209 159.828 691.883 160.281C691.557 160.735 691.621 161.281 692.075 161.92C692.416 162.399 692.827 162.776 693.308 163.052C693.814 163.325 694.455 163.534 695.232 163.677C695.994 163.8 696.949 163.885 698.098 163.932C700.322 164.031 702.157 164.239 703.602 164.557C705.032 164.854 706.193 165.282 707.082 165.839C707.972 166.397 708.722 167.105 709.332 167.964C710.042 168.962 710.304 169.841 710.117 170.6C709.931 171.36 709.375 171.982 708.449 172.468C707.509 172.934 706.258 173.236 704.696 173.375ZM719.888 175.145L716.448 175.45C716.427 173.16 716.036 170.913 715.273 168.709C714.521 166.484 713.385 164.303 711.866 162.167C708.828 157.894 704.25 153.737 698.133 149.696L701.574 149.39C707.909 153.264 712.645 157.406 715.782 161.818C718.906 166.211 720.274 170.653 719.888 175.145Z" fill="#666666"/>
<rect width="979.911" height="99.9956" rx="12.2489" transform="matrix(0.996073 -0.0885398 0.579524 0.814955 109.098 280.518)" fill="white"/>
<g clip-path="url(#clip6_1_160)">
<path d="M212.645 307.56C212.23 306.977 211.634 306.42 210.918 305.947C210.202 305.473 209.39 305.099 208.565 304.863L189.599 299.473C188.773 299.236 187.962 299.144 187.248 299.208C186.534 299.271 185.942 299.487 185.532 299.834L176.03 307.755C175.62 308.101 175.405 308.566 175.407 309.103C175.41 309.64 175.629 310.23 176.043 310.814L185.508 324.123C185.923 324.707 186.519 325.263 187.235 325.737C187.952 326.21 188.763 326.584 189.588 326.821L208.555 332.21C209.381 332.447 210.191 332.539 210.905 332.475C211.619 332.412 212.211 332.196 212.622 331.849L222.123 323.929C222.534 323.582 222.748 323.117 222.746 322.58C222.744 322.043 222.524 321.453 222.11 320.87L212.645 307.56Z" stroke="#E9790D" stroke-width="4.08296" stroke-linecap="round" stroke-linejoin="round"/>
<path d="M175.47 309.096L199.077 315.842M199.077 315.842L210.852 305.951M199.077 315.842L210.907 332.479" stroke="#E9790D" stroke-width="4.08296" stroke-linecap="round" stroke-linejoin="round"/>
</g>
<path d="M266.477 321.548L251.357 300.286L261.057 299.423C264.034 299.159 266.771 299.542 269.268 300.572C271.75 301.583 273.73 303.126 275.207 305.202C276.186 306.58 276.66 307.811 276.627 308.897C276.581 309.962 276.041 310.827 275.009 311.492C273.988 312.135 272.489 312.544 270.512 312.72L264.765 313.231L270.43 321.197L266.477 321.548ZM262.678 310.296L268.315 309.795C270.097 309.636 271.231 309.207 271.718 308.505C272.191 307.784 271.987 306.804 271.107 305.567C270.241 304.349 269.131 303.482 267.778 302.965C266.411 302.429 264.837 302.24 263.055 302.398L257.418 302.899L262.678 310.296ZM296.999 319.217C295.145 319.382 293.281 319.187 291.407 318.631C289.534 318.076 287.771 317.203 286.12 316.013C284.47 314.822 283.048 313.389 281.855 311.712C280.649 310.015 279.983 308.514 279.86 307.208C279.736 305.903 280.128 304.85 281.036 304.047C281.93 303.225 283.304 302.731 285.159 302.566C287.013 302.402 288.885 302.607 290.772 303.182C292.646 303.737 294.401 304.6 296.038 305.77C297.674 306.941 299.096 308.375 300.303 310.072C301.495 311.749 302.161 313.25 302.299 314.575C302.437 315.9 302.052 316.964 301.143 317.766C300.235 318.568 298.854 319.052 296.999 319.217ZM295.04 316.462C296.699 316.314 297.633 315.711 297.84 314.653C298.033 313.574 297.512 312.167 296.277 310.43C295.041 308.693 293.625 307.375 292.026 306.477C290.413 305.559 288.777 305.174 287.118 305.322C285.483 305.467 284.557 306.08 284.34 307.16C284.132 308.219 284.646 309.617 285.882 311.354C287.117 313.091 288.541 314.418 290.153 315.336C291.776 316.232 293.405 316.607 295.04 316.462ZM312.905 317.421L295.646 302.016L299.709 301.655L312.74 313.742L308.164 300.904L311.824 300.578L324.965 312.655L320.316 299.823L324.379 299.462L329.778 315.921L325.423 316.308L313.231 305.293L317.224 317.037L312.905 317.421ZM346.167 314.846C344.263 315.016 342.375 314.823 340.501 314.267C338.652 313.71 336.902 312.836 335.251 311.646C333.625 310.453 332.215 309.018 331.023 307.341C329.83 305.664 329.16 304.174 329.011 302.871C328.874 301.546 329.246 300.484 330.13 299.683C331 298.863 332.362 298.371 334.216 298.206C335.973 298.05 337.764 298.251 339.589 298.811C341.4 299.35 343.118 300.216 344.745 301.409C346.395 302.6 347.853 304.083 349.116 305.86L349.691 306.669L335.709 307.912C336.914 309.46 338.245 310.584 339.701 311.282C341.182 311.978 342.704 312.257 344.265 312.118C345.412 312.016 346.208 311.712 346.652 311.205C347.096 310.699 347.202 310.063 346.969 309.299L351.145 309.15C351.683 310.673 351.522 311.961 350.662 313.014C349.812 314.045 348.314 314.656 346.167 314.846ZM334.005 305.516L343.888 304.637C342.758 303.231 341.512 302.227 340.151 301.626C338.814 301.023 337.475 300.782 336.133 300.901C334.742 301.025 333.851 301.486 333.459 302.285C333.077 303.062 333.26 304.139 334.005 305.516ZM358.261 313.389L346.932 297.458L350.482 297.142L353.631 301.351L353.238 301.291C352.484 299.83 352.276 298.734 352.612 298.003C352.973 297.271 353.849 296.843 355.24 296.719L357.107 296.553L359.13 299.398L357.263 299.564C356.287 299.651 355.562 299.853 355.088 300.171C354.614 300.489 354.397 300.933 354.439 301.503C354.505 302.07 354.843 302.783 355.454 303.641L362.141 313.044L358.261 313.389ZM381.237 311.347L366.117 290.085L375.451 289.255C378.574 288.977 381.255 289.227 383.494 290.005C385.734 290.782 387.563 292.169 388.983 294.165C389.622 295.064 389.951 295.873 389.97 296.593C389.989 297.313 389.689 297.913 389.07 298.392C388.461 298.85 387.554 299.143 386.348 299.271L386.226 299.155C388.475 298.997 390.55 299.343 392.452 300.193C394.364 301.021 395.866 302.203 396.959 303.741C398.336 305.677 398.58 307.205 397.689 308.324C396.799 309.444 394.89 310.133 391.961 310.394L381.237 311.347ZM383.124 308.091L389.786 307.499C391.421 307.353 392.498 306.971 393.018 306.352C393.547 305.71 393.436 304.86 392.683 303.802C391.945 302.764 390.907 301.997 389.568 301.5C388.253 301.002 386.778 300.825 385.143 300.97L378.482 301.562L383.124 308.091ZM376.523 298.807L381.83 298.335C383.562 298.181 384.713 297.793 385.281 297.169C385.85 296.545 385.786 295.744 385.09 294.766C384.352 293.728 383.342 293.001 382.06 292.584C380.788 292.145 379.249 292.006 377.443 292.166L372.136 292.638L376.523 298.807ZM405.785 309.165L390.665 287.903L394.618 287.551L409.738 308.814L405.785 309.165Z" fill="#666666"/>
<rect width="979.911" height="99.9956" rx="12.2489" transform="matrix(0.996073 -0.0885398 0.579524 0.814955 181.245 381.975)" fill="white"/>
<g clip-path="url(#clip7_1_160)">
<path d="M284.793 409.017C284.377 408.433 283.781 407.877 283.065 407.403C282.349 406.93 281.538 406.556 280.712 406.319L261.746 400.93C260.92 400.692 260.109 400.601 259.395 400.664C258.682 400.728 258.09 400.944 257.679 401.291L248.177 409.211C247.767 409.558 247.552 410.023 247.555 410.56C247.557 411.097 247.776 411.687 248.19 412.27L257.655 425.58C258.071 426.163 258.666 426.72 259.383 427.193C260.099 427.667 260.91 428.041 261.735 428.277L280.702 433.667C281.528 433.904 282.338 433.995 283.052 433.932C283.766 433.869 284.358 433.652 284.769 433.305L294.271 425.385C294.681 425.039 294.896 424.574 294.893 424.037C294.891 423.5 294.672 422.91 294.257 422.326L284.793 409.017Z" stroke="#E9790D" stroke-width="4.08296" stroke-linecap="round" stroke-linejoin="round"/>
<path d="M247.617 410.552L271.224 417.299M271.224 417.299L282.999 407.407M271.224 417.299L283.055 433.936" stroke="#E9790D" stroke-width="4.08296" stroke-linecap="round" stroke-linejoin="round"/>
</g>
<path d="M338.624 423.004L323.504 401.742L327.457 401.391L341.725 421.455L338.382 419.874L353.133 418.563L355.241 421.527L338.624 423.004ZM366.144 420.94C364.289 421.105 362.425 420.91 360.552 420.355C358.678 419.8 356.916 418.927 355.265 417.736C353.614 416.546 352.192 415.112 351 413.435C349.793 411.738 349.128 410.237 349.004 408.932C348.88 407.627 349.272 406.573 350.181 405.771C351.075 404.948 352.449 404.455 354.303 404.29C356.158 404.125 358.029 404.33 359.917 404.905C361.79 405.46 363.546 406.323 365.182 407.494C366.819 408.664 368.241 410.098 369.447 411.795C370.64 413.472 371.305 414.973 371.443 416.298C371.581 417.623 371.196 418.687 370.288 419.489C369.38 420.292 367.998 420.775 366.144 420.94ZM364.185 418.185C365.844 418.038 366.777 417.435 366.984 416.376C367.177 415.298 366.656 413.89 365.421 412.153C364.186 410.416 362.769 409.099 361.171 408.201C359.558 407.283 357.922 406.897 356.263 407.045C354.628 407.19 353.702 407.803 353.484 408.884C353.277 409.942 353.791 411.34 355.026 413.077C356.261 414.814 357.685 416.141 359.298 417.059C360.921 417.955 362.55 418.331 364.185 418.185ZM386.938 419.092C385.084 419.257 383.22 419.062 381.346 418.506C379.473 417.951 377.71 417.078 376.06 415.888C374.409 414.697 372.987 413.264 371.794 411.587C370.588 409.89 369.922 408.389 369.799 407.083C369.675 405.778 370.067 404.725 370.975 403.922C371.869 403.1 373.244 402.606 375.098 402.441C376.953 402.277 378.824 402.482 380.712 403.057C382.585 403.612 384.34 404.475 385.977 405.645C387.614 406.816 389.035 408.25 390.242 409.947C391.435 411.624 392.1 413.125 392.238 414.45C392.376 415.775 391.991 416.839 391.082 417.641C390.174 418.443 388.793 418.927 386.938 419.092ZM384.979 416.337C386.639 416.189 387.572 415.586 387.779 414.528C387.972 413.449 387.451 412.042 386.216 410.305C384.981 408.568 383.564 407.25 381.965 406.352C380.353 405.434 378.717 405.049 377.057 405.197C375.422 405.342 374.496 405.955 374.279 407.035C374.072 408.094 374.586 409.492 375.821 411.229C377.056 412.966 378.48 414.293 380.093 415.211C381.715 416.107 383.344 416.482 384.979 416.337ZM399.462 417.597L384.342 396.334L388.222 395.989L397.613 409.196L400.76 400.542L405.665 400.106L402.822 407.491L417.287 416.012L412.822 416.409L401.629 409.699L400.318 412.999L403.342 417.252L399.462 417.597ZM427.598 415.478C425.695 415.647 423.807 415.454 421.933 414.899C420.084 414.341 418.334 413.467 416.683 412.277C415.057 411.084 413.647 409.649 412.455 407.972C411.262 406.295 410.592 404.805 410.443 403.502C410.305 402.177 410.678 401.115 411.562 400.315C412.432 399.494 413.794 399.002 415.648 398.837C417.405 398.681 419.196 398.882 421.021 399.442C422.831 399.981 424.55 400.848 426.176 402.04C427.827 403.231 429.285 404.715 430.548 406.491L431.123 407.3L417.141 408.543C418.346 410.091 419.677 411.215 421.133 411.913C422.614 412.609 424.135 412.888 425.697 412.749C426.844 412.647 427.64 412.343 428.084 411.837C428.528 411.33 428.634 410.695 428.401 409.93L432.576 409.782C433.115 411.305 432.954 412.592 432.094 413.645C431.244 414.676 429.746 415.287 427.598 415.478ZM415.437 406.147L425.32 405.269C424.19 403.862 422.944 402.858 421.583 402.258C420.246 401.655 418.907 401.413 417.565 401.532C416.174 401.656 415.283 402.117 414.891 402.916C414.509 403.693 414.692 404.77 415.437 406.147ZM439.693 414.021L428.364 398.089L431.914 397.773L435.063 401.983L434.67 401.922C433.916 400.461 433.707 399.365 434.044 398.635C434.405 397.902 435.281 397.474 436.672 397.35L438.539 397.184L440.562 400.029L438.695 400.195C437.719 400.282 436.994 400.484 436.52 400.802C436.046 401.121 435.829 401.564 435.871 402.134C435.937 402.701 436.275 403.414 436.886 404.272L443.573 413.676L439.693 414.021ZM472.38 411.624C470.306 411.809 468.28 411.66 466.302 411.178C464.349 410.693 462.543 409.941 460.884 408.921C459.225 407.901 457.804 406.669 456.621 405.224L460.535 404.654C461.415 405.637 462.372 406.454 463.406 407.105C464.426 407.736 465.515 408.191 466.673 408.47C467.842 408.727 469.073 408.798 470.366 408.683C471.488 408.583 472.362 408.389 472.987 408.1C473.622 407.789 473.983 407.385 474.071 406.889C474.16 406.393 473.97 405.816 473.501 405.157C473.075 404.558 472.516 404.045 471.823 403.618C471.141 403.17 470.165 402.8 468.895 402.51C467.635 402.197 465.918 401.936 463.745 401.726C461.373 401.491 459.387 401.179 457.787 400.791C456.188 400.402 454.845 399.863 453.759 399.175C452.682 398.464 451.754 397.559 450.973 396.461C450.107 395.243 449.701 394.144 449.756 393.162C449.82 392.159 450.339 391.338 451.312 390.7C452.285 390.061 453.711 389.659 455.59 389.492C457.567 389.316 459.463 389.466 461.28 389.941C463.121 390.414 464.814 391.134 466.357 392.101C467.925 393.065 469.282 394.207 470.429 395.528L466.494 396.069C465.789 395.261 464.973 394.569 464.045 393.994C463.103 393.398 462.096 392.968 461.025 392.702C459.94 392.416 458.8 392.327 457.604 392.433C456.091 392.567 455.101 392.963 454.634 393.62C454.178 394.255 454.283 395.042 454.951 395.98C455.376 396.579 455.909 397.073 456.549 397.462C457.199 397.829 458.082 398.122 459.198 398.341C460.338 398.558 461.871 398.761 463.796 398.951C466.339 399.171 468.489 399.532 470.247 400.033C472.015 400.513 473.471 401.137 474.614 401.906C475.757 402.674 476.698 403.578 477.436 404.616C478.331 405.874 478.709 407.008 478.571 408.018C478.443 409.005 477.849 409.812 476.789 410.437C475.728 411.061 474.259 411.457 472.38 411.624ZM492.458 409.33C490.603 409.495 488.989 409.267 487.613 408.647C486.238 408.026 485.025 406.977 483.974 405.499L473.05 390.137L476.929 389.792L487.684 404.915C488.209 405.654 488.766 406.145 489.355 406.39C489.945 406.635 490.642 406.722 491.447 406.65L494.229 406.403L496.082 409.008L492.458 409.33ZM474.599 396.749L472.747 394.144L484.752 393.076L486.605 395.682L474.599 396.749ZM506.156 408.495C504.204 408.668 502.266 408.278 500.342 407.324C498.428 406.348 496.797 404.912 495.449 403.015L488.166 392.773L492.045 392.428L498.753 401.861C499.776 403.299 500.833 404.33 501.926 404.954C503.019 405.579 504.187 405.836 505.432 405.725C506.847 405.6 507.682 405.133 507.938 404.325C508.204 403.494 507.854 402.4 506.889 401.043L500.244 391.699L504.124 391.355L515.453 407.286L511.83 407.608L508.796 403.452L509.473 403.583C510.125 405.011 510.172 406.153 509.614 407.009C509.041 407.846 507.888 408.341 506.156 408.495ZM527.391 406.607C525.732 406.755 524.039 406.544 522.312 405.976C520.609 405.406 518.988 404.531 517.449 403.352C515.92 402.15 514.552 400.701 513.345 399.004C512.139 397.307 511.425 395.811 511.203 394.514C510.968 393.198 511.219 392.146 511.956 391.359C512.693 390.572 513.892 390.104 515.551 389.957C516.893 389.837 518.252 389.961 519.628 390.327C521.004 390.693 522.251 391.261 523.37 392.032L517.982 384.455L521.862 384.11L536.982 405.373L533.358 405.695L531.545 403.309C531.618 404.215 531.284 404.966 530.541 405.563C529.808 406.138 528.758 406.486 527.391 406.607ZM526.457 403.761C527.506 403.668 528.241 403.369 528.661 402.865C529.08 402.36 529.187 401.672 528.981 400.798C528.775 399.925 528.261 398.91 527.437 397.752C526.586 396.554 525.673 395.563 524.701 394.779C523.714 393.975 522.706 393.396 521.676 393.042C520.631 392.668 519.584 392.527 518.535 392.621C516.973 392.76 516.084 393.369 515.866 394.45C515.635 395.511 516.137 396.909 517.372 398.646C518.593 400.363 520.022 401.68 521.659 402.595C523.296 403.511 524.895 403.9 526.457 403.761ZM541.477 404.973L530.148 389.041L534.028 388.696L545.357 404.628L541.477 404.973ZM528.435 386.742L526.178 383.567L530.204 383.21L532.461 386.384L528.435 386.742ZM558.39 403.852C556.536 404.017 554.672 403.821 552.798 403.266C550.925 402.711 549.162 401.838 547.512 400.648C545.861 399.457 544.439 398.023 543.246 396.346C542.04 394.649 541.374 393.148 541.251 391.843C541.127 390.538 541.519 389.485 542.427 388.682C543.321 387.86 544.696 387.366 546.55 387.201C548.405 387.036 550.276 387.242 552.164 387.817C554.037 388.372 555.792 389.235 557.429 390.405C559.066 391.576 560.487 393.01 561.694 394.707C562.887 396.384 563.552 397.885 563.69 399.21C563.828 400.535 563.443 401.598 562.534 402.401C561.626 403.203 560.245 403.687 558.39 403.852ZM556.431 401.097C558.091 400.949 559.024 400.346 559.231 399.288C559.424 398.209 558.903 396.801 557.668 395.064C556.433 393.328 555.016 392.01 553.417 391.112C551.805 390.194 550.169 389.809 548.509 389.956C546.874 390.102 545.948 390.715 545.731 391.795C545.524 392.854 546.038 394.252 547.273 395.988C548.508 397.725 549.932 399.053 551.545 399.971C553.167 400.867 554.796 401.242 556.431 401.097Z" fill="#666666"/>
<rect width="979.911" height="103.996" rx="12.2489" transform="matrix(0.996073 -0.0885398 0.579524 0.814955 253.392 483.431)" fill="white"/>
<g clip-path="url(#clip8_1_160)">
<path d="M358.099 512.103C357.683 511.52 357.087 510.963 356.371 510.49C355.655 510.016 354.844 509.642 354.018 509.406L335.052 504.016C334.226 503.779 333.415 503.687 332.701 503.751C331.987 503.814 331.395 504.03 330.985 504.377L321.483 512.298C321.073 512.644 320.858 513.109 320.86 513.646C320.863 514.183 321.082 514.773 321.496 515.357L330.961 528.666C331.377 529.25 331.972 529.806 332.689 530.28C333.405 530.753 334.216 531.127 335.041 531.364L354.008 536.753C354.834 536.99 355.644 537.082 356.358 537.018C357.072 536.955 357.664 536.739 358.075 536.392L367.577 528.472C367.987 528.125 368.201 527.66 368.199 527.123C368.197 526.586 367.978 525.996 367.563 525.413L358.099 512.103Z" stroke="#E9790D" stroke-width="4.08296" stroke-linecap="round" stroke-linejoin="round"/>
<path d="M320.923 513.639L344.53 520.385M344.53 520.385L356.305 510.494M344.53 520.385L356.361 537.022" stroke="#E9790D" stroke-width="4.08296" stroke-linecap="round" stroke-linejoin="round"/>
</g>
<path d="M411.93 526.091L396.81 504.829L413.72 503.325L415.828 506.29L402.871 507.442L407.279 513.641L419.797 512.528L421.842 515.403L409.324 516.516L413.774 522.775L427.024 521.597L429.133 524.562L411.93 526.091ZM431.332 524.366L432.604 515.593L420.296 508.408L424.615 508.024L433.477 513.318L434.059 507.185L438.487 506.791L437.369 515.233L450.109 522.697L445.79 523.081L436.453 517.448L435.725 523.976L431.332 524.366ZM460.494 522.156C458.64 522.321 456.776 522.126 454.902 521.571C453.028 521.015 451.266 520.143 449.615 518.952C447.964 517.762 446.543 516.328 445.35 514.651C444.158 512.974 443.499 511.483 443.376 510.178C443.238 508.853 443.623 507.789 444.531 506.986C445.425 506.164 446.799 505.67 448.654 505.506C450.24 505.365 451.806 505.47 453.353 505.82C454.91 506.149 456.372 506.709 457.739 507.5C459.13 508.289 460.375 509.293 461.475 510.511L457.54 511.052C456.607 510.031 455.533 509.288 454.32 508.823C453.093 508.337 451.858 508.15 450.613 508.261C448.978 508.406 448.052 509.019 447.835 510.1C447.627 511.158 448.141 512.556 449.376 514.293C450.612 516.03 452.036 517.357 453.648 518.275C455.271 519.171 456.9 519.546 458.535 519.401C459.779 519.29 460.618 518.919 461.05 518.286C461.468 517.633 461.363 516.719 460.734 515.544L464.925 515.362C465.572 516.6 465.824 517.702 465.682 518.67C465.564 519.636 465.061 520.424 464.171 521.033C463.306 521.641 462.08 522.015 460.494 522.156ZM480.395 520.387C478.492 520.556 476.603 520.363 474.73 519.808C472.881 519.251 471.131 518.377 469.48 517.186C467.853 515.994 466.444 514.559 465.251 512.882C464.059 511.205 463.388 509.715 463.24 508.412C463.102 507.087 463.475 506.024 464.359 505.224C465.229 504.404 466.591 503.911 468.445 503.746C470.202 503.59 471.993 503.792 473.818 504.351C475.628 504.891 477.347 505.757 478.973 506.95C480.624 508.14 482.081 509.624 483.345 511.401L483.92 512.209L469.938 513.452C471.143 515.001 472.473 516.124 473.93 516.823C475.411 517.519 476.932 517.798 478.494 517.659C479.641 517.557 480.436 517.253 480.88 516.746C481.325 516.24 481.43 515.604 481.198 514.839L485.373 514.691C485.911 516.214 485.751 517.502 484.891 518.555C484.041 519.585 482.543 520.196 480.395 520.387ZM468.234 511.056L478.117 510.178C476.987 508.771 475.741 507.768 474.38 507.167C473.043 506.564 471.704 506.322 470.362 506.442C468.971 506.565 468.08 507.027 467.688 507.826C467.306 508.602 467.488 509.679 468.234 511.056ZM496.914 518.537C495.645 518.649 494.429 518.471 493.265 518.001C492.1 517.532 491.1 516.708 490.262 515.53L477.548 497.652L481.428 497.307L493.929 514.886C494.184 515.245 494.486 515.505 494.833 515.665C495.205 515.823 495.611 515.883 496.05 515.843L497.587 515.707L499.44 518.312L496.914 518.537ZM517.426 520.216C511.077 516.323 506.341 512.18 503.218 507.788C500.08 503.375 498.711 498.933 499.112 494.461L502.552 494.156C502.569 498.739 504.096 503.167 507.134 507.44C508.653 509.576 510.557 511.688 512.847 513.777C515.147 515.844 517.82 517.888 520.866 519.91L517.426 520.216ZM531.836 515.942C529.372 516.161 526.927 515.879 524.503 515.097C522.065 514.295 519.793 513.107 517.687 511.532C515.567 509.938 513.741 508.062 512.207 505.906C510.688 503.77 509.796 501.822 509.531 500.062C509.29 498.301 509.719 496.862 510.819 495.745C511.905 494.609 513.692 493.93 516.181 493.708C518.304 493.52 520.318 493.67 522.222 494.158C524.151 494.645 525.925 495.389 527.546 496.392C529.191 497.392 530.674 498.565 531.995 499.912L527.987 500.46C526.771 499.188 525.367 498.198 523.774 497.491C522.168 496.764 520.339 496.491 518.289 496.673C516.484 496.834 515.27 497.334 514.649 498.175C514.027 499.015 513.876 500.08 514.195 501.367C514.538 502.653 515.242 504.044 516.307 505.542C517.414 507.099 518.669 508.463 520.072 509.633C521.499 510.801 523.042 511.693 524.7 512.31C526.368 512.904 528.105 513.121 529.911 512.961C531.326 512.835 532.369 512.477 533.039 511.887C533.709 511.297 534.019 510.547 533.97 509.639C533.945 508.729 533.588 507.752 532.898 506.71L525.944 507.328L524.006 504.603L534.73 503.649L542.439 514.49L539.731 514.731L536.067 509.962L536.835 510.276C537.248 511.258 537.303 512.155 536.998 512.968C536.694 513.78 536.093 514.449 535.196 514.975C534.322 515.498 533.203 515.82 531.836 515.942ZM555.237 513.735C553.334 513.904 551.445 513.711 549.572 513.156C547.723 512.598 545.972 511.724 544.322 510.534C542.695 509.341 541.286 507.906 540.093 506.229C538.901 504.552 538.23 503.062 538.082 501.759C537.944 500.434 538.317 499.372 539.201 498.571C540.07 497.751 541.432 497.259 543.287 497.094C545.044 496.938 546.835 497.139 548.659 497.699C550.47 498.238 552.189 499.104 553.815 500.297C555.466 501.488 556.923 502.971 558.187 504.748L558.762 505.557L544.78 506.8C545.985 508.348 547.315 509.472 548.772 510.17C550.253 510.866 551.774 511.145 553.336 511.006C554.483 510.904 555.278 510.6 555.722 510.093C556.166 509.587 556.272 508.951 556.04 508.187L560.215 508.038C560.753 509.561 560.592 510.849 559.733 511.902C558.883 512.933 557.384 513.544 555.237 513.735ZM543.076 504.404L552.959 503.525C551.829 502.119 550.583 501.115 549.222 500.514C547.885 499.912 546.546 499.67 545.204 499.789C543.813 499.913 542.921 500.374 542.53 501.173C542.148 501.95 542.33 503.027 543.076 504.404ZM567.331 512.277L556.002 496.346L559.553 496.03L562.723 500.269L562.098 500.102C561.579 499.044 561.398 498.169 561.554 497.476C561.709 496.783 562.12 496.248 562.786 495.87C563.437 495.473 564.275 495.228 565.3 495.137C566.764 495.007 568.163 495.169 569.498 495.624C570.844 496.056 572.087 496.71 573.228 497.585C574.379 498.437 575.367 499.443 576.19 500.601L583.473 510.843L579.593 511.187L572.992 501.904C572.324 500.966 571.641 500.188 570.943 499.571C570.245 498.953 569.494 498.5 568.692 498.211C567.889 497.921 567.037 497.816 566.134 497.897C564.767 498.018 563.92 498.486 563.591 499.301C563.262 500.115 563.602 501.231 564.61 502.649L571.211 511.933L567.331 512.277ZM596.433 510.073C594.53 510.242 592.642 510.049 590.768 509.494C588.919 508.936 587.169 508.062 585.518 506.872C583.891 505.679 582.482 504.244 581.289 502.567C580.097 500.89 579.426 499.4 579.278 498.097C579.14 496.772 579.513 495.71 580.397 494.91C581.267 494.089 582.629 493.597 584.483 493.432C586.24 493.276 588.031 493.477 589.856 494.037C591.666 494.576 593.385 495.443 595.011 496.635C596.662 497.826 598.119 499.309 599.383 501.086L599.958 501.895L585.976 503.138C587.181 504.686 588.511 505.81 589.968 506.508C591.449 507.204 592.97 507.483 594.532 507.344C595.679 507.242 596.474 506.938 596.918 506.432C597.363 505.925 597.468 505.29 597.236 504.525L601.411 504.377C601.949 505.899 601.789 507.187 600.929 508.24C600.079 509.271 598.581 509.882 596.433 510.073ZM584.272 500.742L594.155 499.864C593.025 498.457 591.779 497.453 590.418 496.853C589.081 496.25 587.742 496.008 586.4 496.127C585.009 496.251 584.118 496.712 583.726 497.511C583.344 498.288 583.526 499.365 584.272 500.742ZM608.528 508.615L597.198 492.684L600.749 492.368L603.898 496.578L603.505 496.517C602.751 495.056 602.542 493.96 602.879 493.23C603.24 492.497 604.116 492.069 605.507 491.945L607.374 491.779L609.397 494.624L607.53 494.79C606.554 494.877 605.829 495.079 605.355 495.397C604.88 495.716 604.664 496.159 604.706 496.729C604.772 497.296 605.11 498.009 605.721 498.867L612.407 508.271L608.528 508.615ZM626.882 507.366C624.857 507.546 622.964 507.311 621.205 506.661C619.469 506.008 618.112 504.993 617.132 503.616C616.153 502.238 615.893 501.126 616.354 500.278C616.826 499.408 618.002 498.71 619.884 498.181L625.837 496.538C624.956 495.3 623.949 494.413 622.816 493.877C621.668 493.321 620.399 493.105 619.008 493.229C617.763 493.339 616.951 493.656 616.569 494.178C616.174 494.68 616.155 495.382 616.511 496.284L612.372 496.429C611.602 494.8 611.611 493.462 612.398 492.415C613.209 491.367 614.773 490.739 617.091 490.533C619.727 490.299 622.139 490.7 624.329 491.737C626.529 492.751 628.368 494.296 629.844 496.373L634.252 502.572C634.522 502.951 634.787 503.214 635.047 503.361C635.317 503.485 635.635 503.531 636.001 503.499L636.697 503.437L638.485 505.953C638.378 505.983 638.197 506.021 637.942 506.065C637.688 506.108 637.415 506.143 637.122 506.169C636.292 506.243 635.494 506.197 634.728 506.032C633.986 505.864 633.292 505.544 632.644 505.071C631.982 504.578 631.346 503.902 630.735 503.044L631.244 503.158C631.546 503.874 631.559 504.531 631.284 505.128C631.032 505.724 630.52 506.225 629.747 506.634C628.984 507.02 628.029 507.264 626.882 507.366ZM625.715 504.795C626.887 504.691 627.759 504.423 628.333 503.989C628.893 503.536 629.171 502.96 629.166 502.26C629.161 501.56 628.86 500.79 628.264 499.952L627.54 498.934L622.469 500.34C621.426 500.623 620.802 500.987 620.598 501.429C620.404 501.85 620.52 502.36 620.946 502.959C621.428 503.637 622.085 504.141 622.916 504.471C623.757 504.778 624.69 504.886 625.715 504.795ZM645.391 505.339C644.122 505.452 642.906 505.273 641.741 504.803C640.577 504.334 639.576 503.51 638.739 502.332L626.025 484.454L629.905 484.109L642.406 501.688C642.661 502.047 642.963 502.307 643.31 502.467C643.682 502.625 644.087 502.685 644.527 502.646L646.064 502.509L647.917 505.114L645.391 505.339ZM667.122 503.917C664.462 504.153 662.04 503.848 659.856 503.002C657.658 502.136 655.912 500.795 654.621 498.978C653.967 498.06 653.544 497.227 653.35 496.48C653.181 495.731 653.247 495.004 653.549 494.297C653.837 493.571 654.379 492.802 655.176 491.988C654.203 491.459 653.344 490.962 652.598 490.498C651.839 490.013 651.164 489.521 650.576 489.022C649.997 488.5 649.488 487.93 649.048 487.311C647.926 485.734 647.644 484.443 648.201 483.438C648.768 482.411 650.125 481.802 652.272 481.611C653.712 481.483 655.074 481.575 656.358 481.885C657.629 482.175 658.775 482.657 659.799 483.33C660.808 483.984 661.654 484.789 662.335 485.748C663.173 486.925 663.472 488.003 663.232 488.979C663.017 489.954 662.3 491.025 661.083 492.195L670.308 497.234C670.475 496.264 669.912 494.87 668.62 493.053L672.749 493.005C673.538 494.187 674.079 495.349 674.372 496.49C674.689 497.629 674.725 498.592 674.48 499.378L679.995 502.263L675.383 502.673L673.323 501.582C672.946 502.147 672.229 502.635 671.173 503.047C670.156 503.477 668.806 503.767 667.122 503.917ZM665.459 500.976C666.557 500.878 667.401 500.697 667.991 500.432C668.581 500.168 668.958 499.858 669.121 499.504L658.948 494.009C658.245 494.772 657.864 495.495 657.806 496.18C657.734 496.844 657.996 497.596 658.592 498.434C659.231 499.333 660.12 500.018 661.26 500.489C662.424 500.959 663.824 501.121 665.459 500.976ZM657.542 490.281C658.074 489.788 658.468 489.339 658.725 488.934C658.967 488.509 659.057 488.087 658.992 487.669C658.928 487.25 658.733 486.811 658.406 486.352C657.952 485.713 657.372 485.244 656.667 484.946C655.972 484.626 655.222 484.501 654.417 484.573C653.539 484.651 652.978 484.902 652.735 485.327C652.517 485.75 652.656 486.311 653.153 487.01C653.409 487.369 653.725 487.723 654.103 488.071C654.466 488.4 654.917 488.742 655.455 489.097C656.018 489.451 656.713 489.845 657.542 490.281ZM692.02 501.194L676.901 479.932L685.246 479.19C689.321 478.828 693.117 479.477 696.633 481.139C700.135 482.78 703.1 485.308 705.528 488.722C707.942 492.116 708.716 494.828 707.85 496.858C707.009 498.885 704.587 500.077 700.585 500.433L692.02 501.194ZM693.865 497.878L698.258 497.487C701.137 497.231 702.837 496.412 703.358 495.028C703.889 493.622 703.246 491.642 701.429 489.086C699.583 486.491 697.493 484.628 695.159 483.499C692.835 482.347 690.234 481.899 687.354 482.155L682.962 482.545L693.865 497.878ZM723.055 498.817C721.029 498.997 719.137 498.762 717.377 498.112C715.642 497.46 714.285 496.445 713.305 495.067C712.325 493.69 712.066 492.577 712.527 491.73C712.998 490.86 714.175 490.161 716.056 489.633L722.009 487.989C721.129 486.751 720.122 485.865 718.989 485.328C717.841 484.772 716.571 484.556 715.181 484.68C713.936 484.791 713.123 485.107 712.742 485.629C712.347 486.131 712.327 486.833 712.684 487.736L708.545 487.881C707.775 486.251 707.784 484.913 708.57 483.867C709.381 482.818 710.946 482.191 713.264 481.985C715.899 481.75 718.312 482.152 720.502 483.188C722.702 484.202 724.54 485.748 726.017 487.824L730.425 494.023C730.695 494.402 730.96 494.665 731.22 494.812C731.49 494.937 731.808 494.983 732.174 494.95L732.869 494.888L734.658 497.404C734.55 497.435 734.369 497.472 734.115 497.516C733.861 497.56 733.587 497.595 733.295 497.621C732.465 497.694 731.667 497.649 730.901 497.483C730.159 497.316 729.464 496.995 728.816 496.522C728.155 496.029 727.518 495.353 726.908 494.495L727.417 494.609C727.719 495.325 727.732 495.982 727.456 496.579C727.205 497.175 726.693 497.677 725.92 498.085C725.156 498.471 724.201 498.715 723.055 498.817ZM721.888 496.247C723.059 496.142 723.932 495.874 724.506 495.441C725.066 494.988 725.343 494.411 725.339 493.711C725.334 493.011 725.033 492.242 724.437 491.403L723.713 490.385L718.642 491.791C717.598 492.075 716.974 492.438 716.77 492.881C716.576 493.301 716.692 493.811 717.118 494.41C717.601 495.089 718.258 495.593 719.089 495.922C719.93 496.23 720.863 496.338 721.888 496.247ZM744.034 496.57C742.18 496.735 740.565 496.507 739.189 495.887C737.814 495.266 736.601 494.217 735.55 492.74L724.626 477.377L728.506 477.032L739.26 492.155C739.785 492.894 740.342 493.386 740.932 493.63C741.521 493.875 742.218 493.962 743.023 493.89L745.805 493.643L747.658 496.248L744.034 496.57ZM726.176 483.989L724.323 481.384L736.328 480.317L738.181 482.922L726.176 483.989ZM756.601 495.835C754.576 496.015 752.684 495.78 750.924 495.13C749.189 494.478 747.832 493.463 746.852 492.085C745.872 490.708 745.613 489.595 746.074 488.748C746.545 487.878 747.722 487.179 749.603 486.651L755.556 485.007C754.676 483.77 753.669 482.883 752.535 482.347C751.388 481.791 750.118 481.574 748.727 481.698C747.483 481.809 746.67 482.125 746.289 482.647C745.894 483.149 745.874 483.851 746.23 484.754L742.092 484.899C741.322 483.269 741.33 481.931 742.117 480.885C742.928 479.836 744.493 479.209 746.811 479.003C749.446 478.769 751.859 479.17 754.049 480.206C756.249 481.22 758.087 482.766 759.564 484.842L763.972 491.041C764.242 491.42 764.507 491.683 764.766 491.83C765.037 491.955 765.355 492.001 765.721 491.968L766.416 491.906L768.205 494.422C768.097 494.453 767.916 494.49 767.662 494.534C767.408 494.578 767.134 494.613 766.841 494.639C766.012 494.712 765.214 494.667 764.448 494.501C763.706 494.334 763.011 494.013 762.363 493.54C761.701 493.047 761.065 492.371 760.455 491.513L760.964 491.627C761.266 492.343 761.279 493 761.003 493.597C760.752 494.193 760.24 494.695 759.466 495.103C758.703 495.489 757.748 495.734 756.601 495.835ZM755.435 493.265C756.606 493.16 757.479 492.892 758.053 492.459C758.613 492.006 758.89 491.429 758.886 490.729C758.881 490.029 758.58 489.26 757.984 488.421L757.26 487.403L752.189 488.809C751.145 489.093 750.521 489.456 750.317 489.899C750.123 490.319 750.239 490.829 750.665 491.428C751.148 492.107 751.805 492.611 752.636 492.94C753.477 493.248 754.41 493.356 755.435 493.265ZM777.743 493.574L771.994 471.479L777.008 471.033L801.498 491.463L797.289 491.837L790.97 486.508L780.356 487.452L781.953 493.2L777.743 493.574ZM779.513 484.406L787.675 483.681L776.676 474.342L779.513 484.406ZM803.911 491.248L792.582 475.316L796.132 475.001L799.303 479.24L798.678 479.073C798.159 478.015 797.978 477.14 798.134 476.447C798.289 475.754 798.7 475.218 799.365 474.841C800.017 474.443 800.855 474.199 801.88 474.108C803.344 473.978 804.743 474.14 806.078 474.594C807.423 475.027 808.667 475.68 809.808 476.555C810.959 477.408 811.946 478.413 812.77 479.571L820.053 489.813L816.173 490.158L809.571 480.875C808.904 479.936 808.221 479.158 807.523 478.541C806.825 477.924 806.074 477.471 805.272 477.181C804.469 476.892 803.616 476.787 802.714 476.867C801.347 476.989 800.499 477.457 800.171 478.272C799.842 479.086 800.182 480.202 801.189 481.62L807.791 490.903L803.911 491.248ZM830.487 489.268C828.461 489.448 826.569 489.213 824.809 488.563C823.074 487.91 821.717 486.895 820.737 485.518C819.758 484.14 819.498 483.028 819.959 482.18C820.431 481.31 821.607 480.611 823.488 480.083L829.441 478.44C828.561 477.202 827.554 476.315 826.421 475.779C825.273 475.223 824.004 475.007 822.613 475.13C821.368 475.241 820.555 475.557 820.174 476.079C819.779 476.582 819.76 477.284 820.116 478.186L815.977 478.331C815.207 476.701 815.216 475.363 816.002 474.317C816.813 473.269 818.378 472.641 820.696 472.435C823.332 472.201 825.744 472.602 827.934 473.639C830.134 474.653 831.973 476.198 833.449 478.275L837.857 484.474C838.127 484.853 838.392 485.116 838.652 485.263C838.922 485.387 839.24 485.433 839.606 485.401L840.302 485.339L842.09 487.854C841.983 487.885 841.802 487.922 841.547 487.966C841.293 488.01 841.02 488.045 840.727 488.071C839.897 488.145 839.099 488.099 838.333 487.934C837.591 487.766 836.896 487.446 836.249 486.973C835.587 486.48 834.951 485.804 834.34 484.945L834.849 485.059C835.151 485.775 835.164 486.432 834.888 487.03C834.637 487.625 834.125 488.127 833.352 488.536C832.589 488.922 831.634 489.166 830.487 489.268ZM829.32 486.697C830.491 486.593 831.364 486.324 831.938 485.891C832.498 485.438 832.776 484.862 832.771 484.162C832.766 483.461 832.465 482.692 831.869 481.854L831.145 480.835L826.074 482.241C825.03 482.525 824.407 482.888 824.203 483.331C824.009 483.752 824.125 484.261 824.551 484.86C825.033 485.539 825.69 486.043 826.521 486.373C827.362 486.68 828.295 486.788 829.32 486.697ZM848.996 487.241C847.727 487.353 846.511 487.175 845.346 486.705C844.182 486.236 843.181 485.412 842.344 484.234L829.63 466.356L833.51 466.011L846.011 483.59C846.266 483.949 846.568 484.209 846.915 484.369C847.287 484.527 847.692 484.586 848.131 484.547L849.669 484.411L851.521 487.016L848.996 487.241ZM858.006 491.216L856.153 488.61L858.532 488.399C859.191 488.34 859.622 488.217 859.826 488.029C860.03 487.841 860.082 487.55 859.983 487.155L859.668 485.782L858.46 485.89L840.444 471.062L844.544 470.698L858.789 482.74L854.975 469.77L859.111 469.403L864.001 487.881C864.264 488.834 864.154 489.555 863.671 490.043C863.213 490.53 862.3 490.834 860.934 490.955L858.006 491.216ZM880.188 484.468C878.333 484.633 876.718 484.405 875.343 483.784C873.968 483.164 872.755 482.114 871.704 480.637L860.779 465.274L864.659 464.929L875.413 480.053C875.939 480.791 876.496 481.283 877.085 481.528C877.674 481.773 878.372 481.859 879.177 481.788L881.959 481.54L883.811 484.146L880.188 484.468ZM862.329 471.887L860.477 469.281L872.482 468.214L874.335 470.819L862.329 471.887ZM887.153 483.849L875.824 467.917L879.704 467.572L891.033 483.504L887.153 483.849ZM874.111 465.618L871.853 462.443L875.88 462.085L878.137 465.26L874.111 465.618ZM904.066 482.727C902.212 482.892 900.347 482.697 898.474 482.142C896.6 481.587 894.838 480.714 893.187 479.523C891.536 478.333 890.115 476.899 888.922 475.222C887.73 473.545 887.071 472.054 886.948 470.749C886.81 469.424 887.195 468.36 888.103 467.558C888.997 466.735 890.371 466.242 892.226 466.077C893.812 465.936 895.378 466.041 896.925 466.392C898.482 466.72 899.943 467.28 901.31 468.071C902.702 468.86 903.947 469.864 905.047 471.082L901.112 471.623C900.179 470.602 899.105 469.859 897.892 469.394C896.665 468.909 895.429 468.722 894.185 468.832C892.55 468.977 891.624 469.59 891.406 470.671C891.199 471.73 891.713 473.127 892.948 474.864C894.184 476.601 895.607 477.929 897.22 478.847C898.843 479.742 900.472 480.118 902.107 479.972C903.351 479.862 904.19 479.49 904.622 478.857C905.04 478.205 904.935 477.291 904.306 476.115L908.497 475.934C909.143 477.171 909.396 478.274 909.254 479.242C909.136 480.207 908.632 480.995 907.743 481.605C906.878 482.212 905.652 482.587 904.066 482.727ZM923.455 481.004C921.625 481.167 919.912 481.075 918.316 480.728C916.745 480.38 915.334 479.837 914.083 479.099C912.818 478.341 911.76 477.437 910.91 476.388L914.793 475.884C915.613 476.745 916.574 477.402 917.675 477.856C918.776 478.31 920.071 478.471 921.559 478.339C922.78 478.23 923.63 477.985 924.11 477.603C924.591 477.22 924.583 476.68 924.086 475.981C923.816 475.602 923.467 475.293 923.038 475.055C922.62 474.795 922.017 474.605 921.231 474.484C920.43 474.342 919.319 474.24 917.898 474.175C915.757 474.047 913.996 473.832 912.614 473.53C911.232 473.228 910.089 472.789 909.185 472.211C908.282 471.633 907.517 470.905 906.893 470.027C905.856 468.569 905.67 467.323 906.335 466.287C907.024 465.25 908.625 464.619 911.139 464.396C912.822 464.246 914.408 464.36 915.896 464.737C917.369 465.094 918.707 465.644 919.909 466.386C921.122 467.106 922.161 467.948 923.028 468.911L919.166 469.445C918.646 468.897 918.061 468.44 917.412 468.073C916.772 467.684 916.081 467.406 915.339 467.238C914.583 467.051 913.803 466.993 912.997 467.064C911.753 467.175 910.968 467.457 910.641 467.911C910.315 468.364 910.379 468.91 910.834 469.549C911.174 470.028 911.586 470.406 912.067 470.681C912.573 470.955 913.214 471.163 913.99 471.306C914.752 471.43 915.708 471.515 916.856 471.561C919.081 471.66 920.915 471.869 922.36 472.186C923.791 472.484 924.951 472.911 925.841 473.469C926.73 474.027 927.48 474.735 928.091 475.593C928.801 476.591 929.062 477.47 928.876 478.23C928.69 478.989 928.133 479.612 927.207 480.097C926.267 480.563 925.016 480.865 923.455 481.004ZM938.647 482.774L935.206 483.08C935.186 480.789 934.794 478.542 934.032 476.339C933.279 474.113 932.143 471.932 930.624 469.796C927.586 465.524 923.009 461.367 916.892 457.325L920.333 457.02C926.667 460.893 931.403 465.036 934.541 469.448C937.664 473.84 939.033 478.282 938.647 482.774Z" fill="#666666"/>
</g>
<rect width="995.222" height="150.049" transform="matrix(0.996073 -0.0885398 0.579524 0.814955 95.1995 261.608)" fill="#0D2D50" fill-opacity="0.64"/>
<rect width="995.222" height="125.551" transform="matrix(0.996073 -0.0885398 0.579524 0.814955 182.156 383.891)" fill="#0D2D50" fill-opacity="0.6"/>
<rect width="995.222" height="125.551" transform="matrix(0.996073 -0.0885398 0.579524 0.814955 254.916 486.21)" fill="#0D2D50" fill-opacity="0.6"/>
<rect width="995.222" height="125.551" transform="matrix(0.996073 -0.0885398 0.579524 0.814955 327.676 588.529)" fill="#0D2D50" fill-opacity="0.6"/>
<rect width="995.222" height="125.551" transform="matrix(0.996073 -0.0885398 0.579524 0.814955 -123.081 -45.3472)" fill="#0D2D50" fill-opacity="0.6"/>
<rect width="995.222" height="150.049" transform="matrix(0.996073 -0.0885398 0.579524 0.814955 -50.3208 56.9714)" fill="#0D2D50" fill-opacity="0.64"/>
</g>
</g>
<defs>
<clipPath id="clip0_1_160">
<rect width="590" height="540" rx="20" fill="white"/>
</clipPath>
<clipPath id="clip1_1_160">
<rect x="-99" y="-74.5" width="689" height="689" rx="36.7467" fill="white"/>
</clipPath>
<clipPath id="clip2_1_160">
<rect width="979.911" height="872.733" fill="white" transform="matrix(0.996073 -0.0885398 0.579524 0.814955 -131.984 -58.5029)"/>
</clipPath>
<clipPath id="clip3_1_160">
<rect width="48.9956" height="48.9956" fill="white" transform="matrix(0.996073 -0.0885398 0.579524 0.814955 -58.2805 -9.58325)"/>
</clipPath>
<clipPath id="clip4_1_160">
<rect width="48.9956" height="48.9956" fill="white" transform="matrix(0.996073 -0.0885398 0.579524 0.814955 13.8665 91.8733)"/>
</clipPath>
<clipPath id="clip5_1_160">
<rect width="48.9956" height="48.9956" fill="white" transform="matrix(0.996073 -0.0885398 0.579524 0.814955 87.1724 194.96)"/>
</clipPath>
<clipPath id="clip6_1_160">
<rect width="48.9956" height="48.9956" fill="white" transform="matrix(0.996073 -0.0885398 0.579524 0.814955 160.478 298.046)"/>
</clipPath>
<clipPath id="clip7_1_160">
<rect width="48.9956" height="48.9956" fill="white" transform="matrix(0.996073 -0.0885398 0.579524 0.814955 232.625 399.503)"/>
</clipPath>
<clipPath id="clip8_1_160">
<rect width="48.9956" height="48.9956" fill="white" transform="matrix(0.996073 -0.0885398 0.579524 0.814955 305.931 502.589)"/>
</clipPath>
</defs>
</svg>
